<mxfile host="65bd71144e">
    <diagram id="Gs0X_0HG1rDfVySTpSiC" name="Page-1">
        <mxGraphModel dx="641" dy="590" grid="1" gridSize="10" guides="1" tooltips="1" connect="1" arrows="1" fold="1" page="1" pageScale="1" pageWidth="850" pageHeight="1100" math="0" shadow="0">
            <root>
                <mxCell id="0"/>
                <mxCell id="1" parent="0"/>
                <mxCell id="2" value="" style="shape=image;verticalLabelPosition=bottom;labelBackgroundColor=default;verticalAlign=top;aspect=fixed;imageAspect=0;image=data:image/jpeg,/9j/4AAQSkZJRgABAQAAAQABAAD/2wBDAAMCAgICAgMCAgIDAwMDBAYEBAQEBAgGBgUGCQgKCgkICQkKDA8MCgsOCwkJDRENDg8QEBEQCgwSExIQEw8QEBD/wAALCAPEA6MBAREA/8QAHgABAQACAwEBAQEAAAAAAAAAAAcFBgMECAkCAQr/xABREAABAwQAAwIKCQIEBAUCAgsAAQIDBAUGBwgREhPVFBYXGCFXWHeVlxUiNzhWlrW20yMxCTJBUSRShcFCYYGRoSUzNGKkJjVDVFVykqKxw//aAAgBAQAAPwD6pnnXENIaX2VtreN92NqHCsquUGcUVJFWXuwUldPHA3F7G5sTZJo3ORiOe9yNReXN7l/1U3XzTuFj2adVfk23fwjzTuFj2adVfk23fwjzTuFj2adVfk23fwjzTuFj2adVfk23fwjzTuFj2adVfk23fwjzTuFj2adVfk23fwjzTuFj2adVfk23fwjzTuFj2adVfk23fwjzTuFj2adVfk23fwjzTuFj2adVfk23fwjzTuFj2adVfk23fwjzTuFj2adVfk23fwjzTuFj2adVfk23fwjzTuFj2adVfk23fwjzTuFj2adVfk23fwjzTuFj2adVfk23fwjzTuFj2adVfk23fwjzTuFj2adVfk23fwjzTuFj2adVfk23fwjzTuFj2adVfk23fwjzTuFj2adVfk23fwjzTuFj2adVfk23fwjzTuFj2adVfk23fwjzTuFj2adVfk23fwjzTuFj2adVfk23fwjzTuFj2adVfk23fwk/3bw9aCwbF8eynCtH6/x+9UWwMH8GuNrxmipKqDrye2sf0Sxxte3qY9zV5L6WuVF9CqelQAAAAAAAAAAAAAAAAAAAAAAAAAAAAAAAAAAAAAAAAAAACVab+0Xe3vAo/wBq2EqoAAAAAAAAAAAAJVxLfZ1aPeBgn7qtZVQAAAAAAAAAAAAAAAAAAAAAAAAAAAAAAAAAAAAAAAAAAACVab+0Xe3vAo/2rYSqgAAAA0Dfm16DR2nMs2rXsp5Ex+3umpoaiVIop6t7kipoXvVURjXzyRMVyqnJHc/9Dy5pHibodRYLtjFbxuSh3dcNe2iiyq13WkyOKufdmVcDIp6Zahiydk2O4slT6yOWKGqg5NVEa1efZ21+JbS2ycpyTN8lxW9zWDSd3yW30Vpo66js0lxgr6RFSajkq5XSOj6lalQkjHOZKrUbH0r1bZlO5eKnGsrzbCJ67VaXDFMAj2G2qSw3F8T2OfVx/Rax+HIqu66R3/GI9E6UT/hlV/1MRd+JvZDsjuVVr6yWSGtyKu15Q0Md6qq+rp6Vl7gndI50TahsbVj5NXnCyJZOS9fWvSrbhpPYuaZPkOxNfbDmsdXftfX2mtr7hZaCaipa2nqbdTVsMiQTTTuieiVDmOTtXoqs5py58kqwAAAAJVxLfZ1aPeBgn7qtZVQAAAAAAAAAAAAAAAAAAAAAAAAAAAAAAAAAAAAAAAAAAACVab+0Xe3vAo/2rYSqgAAAA1LPNa2PYtZi1RkFbcGwYpfYMhgo6eVjIKurgY9IPCEVqueyN70ma1rm/wBSONy80byMDtHh713uDI7VkWa09ZP9H2i62CqooZWx091ttwjY2amqvq9orWviiljWN8bmSMRyO/ui6NceDLF8kdf6jOtv7KyusyHC6nA5qu6VtvSSntc0kUjuySCjjZ2yPi59q9r3O63dfXyZ00LJNIYplGX5RmlwuF2jrssw1mEVscMsaRR0LZaqRJI0WNVSbqrJfrOVzeTWfV9Cqur0vCdrqkr6O4x3rI1koarF6uNHVMHSr7DG9lGi/wBH+z0eva/26l5dPQb7imtLFh+Z5tnNsq6+Wvz2uo7hco55GOhikpqKGjjSFGtRzWrHAxV6nOXqVyoqJyRNtAAAABKuJb7OrR7wME/dVrKqAAAAAAAAAAAAAAAAAAAAAAAAAAAAAAAAAAAAAAAAAAAASrTf2i7294FH+1bCVUAAAAAAAAAAAAEq4lvs6tHvAwT91WsqoAAAAAAAAAAAAAAAAAAAAAAAAAAAAAAAAAAAAAAAAAAAB51xDSGl9lba3jfdjahwrKrlBnFFSRVl7sFJXTxwNxexubE2SaNzkYjnvcjUXlze5f8AVTdfNO4WPZp1V+Tbd/CPNO4WPZp1V+Tbd/CPNO4WPZp1V+Tbd/CPNO4WPZp1V+Tbd/CPNO4WPZp1V+Tbd/CPNO4WPZp1V+Tbd/CPNO4WPZp1V+Tbd/CPNO4WPZp1V+Tbd/CPNO4WPZp1V+Tbd/CPNO4WPZp1V+Tbd/CPNO4WPZp1V+Tbd/CPNO4WPZp1V+Tbd/CPNO4WPZp1V+Tbd/CPNO4WPZp1V+Tbd/CPNO4WPZp1V+Tbd/CPNO4WPZp1V+Tbd/CPNO4WPZp1V+Tbd/CPNO4WPZp1V+Tbd/CPNO4WPZp1V+Tbd/CPNO4WPZp1V+Tbd/CPNO4WPZp1V+Tbd/CPNO4WPZp1V+Tbd/CPNO4WPZp1V+Tbd/CPNO4WPZp1V+Tbd/CPNO4WPZp1V+Tbd/CPNO4WPZp1V+Tbd/CaBuvh90LgeM49lWD6RwHHb3RZ/hCU1ytONUVJVQJJk1tjkRksUbXt6o3vYvJfS1zkX0KqHpQAAAAAAAAAAAAAAAAAAAAAAAAAAAAAAAAAAAAAAAAAAAAlWm/tF3t7wKP9q2ElOx+KunxTintOBx7Pxqhx603C041fMbqKikbca6uusU7o6qJr17bs6Z62tq9H1VbWVCv5dinPtZbxH7IvWe49b8FxymtuGwbYjwK5Xl1wjmrK98MEvhUS0bqdWw06zNVjZmzrKroU/pta/ma1ZeOzZN/xOgym38O9rRt1wCt2RSQSZurXfRVErWVbJFSgVGTrJJEkLG9TZGyIsjoFRzUzzOLXJ6za0uvsBwR+S1WSX6noLM293+K20lHCuN0d2c9VgoZJWMVk8nNrlqH9pzVrkY5scel7A4t9j3vBrvn+DVkuLsfpK7ZdDbZIaasW33ymuDKZzklfGvbNjckrG80Rj28nLGirySzw3LYmqN2YNg982pfM8sOwoLpS8r9QW2GqtlbRweEskhkoKWma6KSNJWPZIx7kc2JWuanWjtd4jdzZ9j1o3NWa+yJbM7VmBJcmPSkgmWou9W2aSJ7kmjenRBFTMVET0PdUuRyL2aGg7D27uXDcL2DlGutjbQvtpsOAXi7T3bPcChsjrZdonQeAJRpJa6JKlXtWrdI10czGpFGquYqo2Sl682Fn/EnNl+Z652JUYdjllknseP219oh8MqqxI2yNuFzhq4Fmhhej4XwU7Oye6CRJHu6pGsirmos9ZtLV2KbFbSNpH5FaKW4TUrX9aU00kaLLD1f+Lof1M5/2Xp5m3AAAAAAAAlXEt9nVo94GCfuq1lVAAAAAAAAAAAAAAAAAAAAAAAAAAAAAAAAAAAAAAAAAAAAJVpv7Rd7e8Cj/AGrYTlrOHfA6/W+d6yqqq7vodh3G6Xa61q1LPDI6utkV6SwP6Oliwcomwc2u6Egi6utUVVwfmp4n440WVrnuZ+DUeTR5n9CJUUTbfLfEhSKStciUySosretz4myth65ZHtja5eacFi4P9aY9jtsxmivmTPpbTry461hfLU06yOtlbJFJLK5UhRFqEWBnS5ERiIq82L6OXbxvhR13i+wrRsq33nI5LnZq1tfBFNUQLA6RtjhsyI9qQo5W+DU7H+hyL2quXn08mJipOC3VsmJVWGOv2VeBVeHXHCHyJVU/apQ1tYtXLIi9hy7ZJF5Ndy6Ub6Faq+k3XEtKxWPModgZdsbK89vtBRS2+01GQtt8bLVDM5rqjweKgpKaPrl7OJHSPa96NjRrXNa6RH4fY+g4NiXvNKGtuD4MX2XijcdyRtNOkVbBLA6VKeopVdG9iudHVTMf18kTsoVRHc3G77S13ZNt65yPWOSVVdTWvJ7dNbKuahexlQyKVqtcsbntc1Hcl9Cq1U/8lNczPVFc3LbhtzV1yWz5xV2SSzzwyztjtV45c/BJLhH2Mj5HUrnyPidEsb1R743PVjuTdr13hVt1tgOOa+s8ss1FjdrpbVBLLy7SZsMTY+0eqf3e7p6nL/q5VU2EAAAAAAAEq4lvs6tHvAwT91WsqoAAAAAAAAAAAAAAAAAAAAAAAAAAAAAAAAAAAAAAAAAAABKtN/aLvb3gUf7VsJVQAAAAAAAAAAAASriW+zq0e8DBP3VayqgAAAAAAAAAAAAAAAAAAAAAAAAAAAAAAAAAAAAAAAAAAAEq039ou9veBR/tWwlVAAAAAAAAAAAABKuJb7OrR7wME/dVrKqAAAAAAAAAAAAAAAAAAAAAAAAAAAAAAAAAAAAAAAAAAAASrTf2i7294FH+1bCecNo7Ivjt93TiFtuD5JW4vqHIKLFZ8hpaqiS101sayVmQLNC+qbUuc2Sthcqsp3tR1qh+s1O1U5suy3NM92RjN/yXP5YaOx8QbcToMS8EpGU8ENJRyrFOj0j8KdUSMVZ1V8yx9lUJyjTk1xpeI7o4nMi17Y7/AFPELdIq69aUvOy5Xx45Z+mG4W+SKKKCNq0qokEvhDXzI7qero17J0DXdLdlsm2Nq5rxBUuGY5mrMJps5yam+lKuyWK2Oq1ibhFvuKNSWpp5e0ekquakkySObGqMT6rGI3X8dyzb2f5/rDd1sqprznOJ6tuFyr6GkgbF40U9NeW0tZSrExOhs08TVljRqI1tSyHkiM5tMlhO6KqfXTZdVZ7lMMOVZrsjK6Z2J26yvqqu1wXaV6Vb6i+SMpaelYlVE57eh00nWzpVjY5OrD0/ErxIZJrm9bJotsraqnG8X1ndY7dFYqCWjrau+SsjrVqOuJZljVOpzWRSxK1zvQ5ETpN8uW6t7Wu/P0/SZVluR1Uezbpi7b9aKHH4b7PQ09jpLlFAxK1ILakyvqno56xc1ip39LOtepPR3DjluZZzpbGck2DJb5chminp66agqqSoiqHQVEsLZldRyy06Pe2Nr3sikc1j3PYi/V5JSQAAAAAAACVcS32dWj3gYJ+6rWVUAAAAAAAAAAAAAAAAAAAAAAAAAAAAAAAAAAAAAAAAAAAAlWm/tF3t7wKP9q2E352IYk6x3HGHYvaFs14WrdcbctFF4NWLVOe+qWaLp6JO2dJI6TqRetXuV3NXKYduntRsyWnzRurMQTIKOKGCnuyWOl8MhihRqRMZN0dbWsRjEaiLyb0t5cuSHYpdX60oaSG30WvMZp6WmtM1ghgitFOyOK2Sq1ZaJrUZybTvVjFdEn1HK1OaLyQ5KPW+u7ddqe/2/AscprnSyJNBWw2uBk8UiUzaVHskRvU13gzGQc0Xn2TWs/yoiHPZcEwjG6inq8dw2x2uejpJKCnlordDA+GmfL2r4WKxqK2N0v8AUViehXfWVOfpMRWaW05caa30Vw1NhlTT2iululvhmsNK9lJWSv7SWoiarOUcr3/Wc9vJyu9KqqnNTai1RRW2qs1HrDEoLfWx0cVTSRWWmbDOykf10rXsRnS5IXqro0VOTF9LeSnNfNXayye13OyZLrrGLtbr3Wtudzo660U88FbWNYxjaiZj2K2WVGRRNR7kVyJGxOfJqcs7a7XbLHbKSy2W3Utvt9vgjpaSkpYWxQ08LGo1kcbGojWMa1ERGoiIiIiIdoAAAAAAAAlXEt9nVo94GCfuq1lVAAAAAAAAAAAAAAAAAAAAAAAAAAAAAAAAAAAAAAAAAAAAJVpv7Rd7e8Cj/athKqAAAAAAAAAAAACVcS32dWj3gYJ+6rWVUAAAAAAAAAAAAAAAAAAAAAAAAAAAAAAAAAAAAAAAAAAAAlWm/tF3t7wKP9q2E6974rNJ47X3yiu15yKOHGa91svNyjw68zWu3VDejrbPXx0q0saNSRiuc6VGtRyKqonpK6YPCs2xjYmN02XYdc/pC01ck8UNR2MkXU6GZ8MidMjWuTlJG9vpT08uac0VFM4AAAAAAAAAAASriW+zq0e8DBP3VayqgAAAAAAAAAAAAAAAAAAAAAAAAAAAAAAAAAAAAAAAAAAAEq039ou9veBR/tWwnnHLtLbfu+GbyuNvvOdfQlfsOurLngVPb6KGPLLAsNKlXHSVElKtW2WaJJGsfFN0PWLs2oxXrI39bKwy+Xvb19vlq1lk9Xml0v8Ahdw1lkrMdqmU9jsEKUy11O+qexGW1rei6LPSzLG+VKljVjk6kY2X3XT+yanDcaocxwq7tsyYpkdFbKeo1zcskq7depL7WS9rSwU9VTLbaySB9I6Ctm6Y0SNf6saKvV9GsQpbtRYlZKK/VlTV3Ont1NFW1FSxjJpp2xNSR72xvexrlciqqNe5qKq8nOT0rlwAAAAAAAAAASriW+zq0e8DBP3VayqgAAAAAAAAAAAAAAAAAAAAAAAAAAAAAAAAAAAAAAAAAAAEq039ou9veBR/tWwlVAAAAAAAAAAAABKuJb7OrR7wME/dVrKqAAAAAAAAAAAAAAAAAAAAAAAAAAAAAAAAAAAAAAAAAAAASq4aLu3jfk+W4lvbYGJeNtwhulxt1rp7HNS+FR0VNRJIxa23Tyt5w0cHNO0VvUiqiJzHkb2L7WO1fhuK9zDyN7F9rHavw3Fe5h5G9i+1jtX4bivcw8jexfax2r8NxXuYeRvYvtY7V+G4r3MPI3sX2sdq/DcV7mHkb2L7WO1fhuK9zDyN7F9rHavw3Fe5h5G9i+1jtX4bivcw8jexfax2r8NxXuYeRvYvtY7V+G4r3MPI3sX2sdq/DcV7mHkb2L7WO1fhuK9zDyN7F9rHavw3Fe5h5G9i+1jtX4bivcw8jexfax2r8NxXuYeRvYvtY7V+G4r3MPI3sX2sdq/DcV7mHkb2L7WO1fhuK9zDyN7F9rHavw3Fe5h5G9i+1jtX4bivcw8jexfax2r8NxXuYeRvYvtY7V+G4r3MPI3sX2sdq/DcV7mHkb2L7WO1fhuK9zDyN7F9rHavw3Fe5jqV/D9f7/JbYcv4jNlZBbbdeLZe1ttXSY9DBUz0FbDWU7ZHU1qimRnbU8SqjJGqqIqc/SWAAAAAAAAAAAAAAAAAAAAAAAAAAAAAAAAAAAAAAAAAAAAAAAAAAAAAAAAAAAAAAAAAAAAAAAAAAAAAAAAAAAAAAAAAAAAAAAAAAAAAAAAAAAAAAAAAAAAAAAAAAAAAAAAAAAAAAAAAAAAAAAAAAAAAAAAAAAAAAAAAAAAAAAAAAAAAAAAAAAAAAAAAAAAAAAAAAAAAAAAAAAAAAAAAAAAAAAAAAAAAAAAAAAAAAAAAAAAAAAAAAAAAAAAAAAAAAAAAAAAAAAAAAAAAAAAAAAAAAAAAAAAAAAAAAAAAAAAAAAAAAAAAAAAAAAAAAAAAAAAAAAAAAAAAAAAAAAAAAAAAAAAAAAAAAAAAAAAAAAAAAAAAAAAAAAAAAAAAAAAAAAAAAAAAAAAAAAAAAAAAAAAAAAAAAAAAAAAAAAAAAAAAAAAAAAAAAAAAAA0rPtw4RrW62mxZKuQT3K909XV0NHZMZud6nkgpnQNnldHQU8zo2MdVU7Vc9GpzlaiczX/OW11+HNq/KfKu7h5y2uvw5tX5T5V3cPOW11+HNq/KfKu7h5y2uvw5tX5T5V3cPOW11+HNq/KfKu7h5y2uvw5tX5T5V3cPOW11+HNq/KfKu7h5y2uvw5tX5T5V3cPOW11+HNq/KfKu7h5y2uvw5tX5T5V3cPOW11+HNq/KfKu7h5y2uvw5tX5T5V3cPOW11+HNq/KfKu7h5y2uvw5tX5T5V3cPOW11+HNq/KfKu7h5y2uvw5tX5T5V3cPOW11+HNq/KfKu7h5y2uvw5tX5T5V3cPOW11+HNq/KfKu7h5y2uvw5tX5T5V3cPOW11+HNq/KfKu7h5y2uvw5tX5T5V3cPOW11+HNq/KfKu7h5y2uvw5tX5T5V3cPOW11+HNq/KfKu7h5y2uvw5tX5T5V3cPOW11+HNq/KfKu7jf8AE8psWc4rZs1xau8NsuQW+nuluqeyfH29LPG2SKToejXt6mPavJyI5OfJURfQZYAAAAAAAAAAAAAAAAAAAAAAAAAAAAAAAAAAAAAAAAAAAEqyP70+vPd/mX6jjhVQAAAAAAAAAAAACVcJ33WNN+7/AB79OgKqAAAAAAAAAAAAAAAAAAAAAAAAAAAAAAAAAAAAAAAAAAACVZH96fXnu/zL9RxwqoAAAMdkGRY/iVlq8jyq+2+zWmgj7Wrr7hVMp6anZz5dUkj1RrE5qnpVU/udDCthYDsq1S33XOcY/lVtgqHUktZZLnDXQRzta1zonSQuc1Ho17HK1V58ntX/AFQ2Ax9hyCw5Taae/wCMXugu9sq0ctPW0FSyogmRHK1VZIxVa7k5FReS/wB0VP8AQyBPcd4ieH7L77TYvie9Ne3q81r3R01ut2T0VTVTPRFcrWRRyq9yojVVURP7Iv8AsUI6NFfbJcrhcbRbrzQ1VdaJI4rhSwVDHy0b5I2yMbMxF5xq6NzXojkRVa5FT0Kii7X2x2FtK++Xmhtza6rioKVauoZCk9TKvKOFnUqdUj19DWJzVV/siizXyyZFQpdMfvFDc6JZpqdKijqGTxdrDK6KVnWxVTqZIx7HJz5tcxzV5Kiod4AAAAlXCd91jTfu/wAe/ToCqgAAAAAAAAAAAAAAAAAAAAAAAAAAAAAAAAAAAAAAAAAAAlWR/en157v8y/UccKqAAACCb0daG8QGiUzlKfxUdXXhKXw5GrR+NHZU62nn1fUSfs0uPYc/T2nLo+v0k04t7tNYNgZZfdVXOe3ZNbtLZnV5hWWqZYZaaGOljdZpZ5GKisqG1CVDqZyKkiNSpVv1eZkKTFe32XjGocp2nsOgxuTXkuXrXeOlypaq53jtooaqd1Z26SJHTxOjk8FY9tM1anqWLkjeUR4fK3ZOY45q/UWNVrLnY4Ne1V9o4vKFc8NW51j73WQzVLKi2Uss1QsMUcC9ir2xtSr6nNevQrLFphM5zzdeG2/Yu458nZZNaUl5fJh+WVSWS6XKO9VEUdY91L2DKtexjSORj40hkVXo+NyNYjcRbm4w/wDwsaBuS9l2q4MqWT08p/pvk/6N8GVPrJU+F9h2XT6evpMPe7zxDZ1edsXyXMrBit911X0dvpa+7bRuGP0OOsjoaaojq6m0wUUlHW09RLLNIstU9ySMV0TFjSJFTuXBbBheyt63KsuGxZrlk2b4pZaagxTK5op7lV1dso6jwSKarqGRU0Uj0eztmPhlig/pwyRojGGAxLO9n2TNsiwaryy6UFPaNv4HQ/RdPnlfkqUEdZAiVtEtyq2sqZY3ujRZKeTmxj1kRqclVV/GN23ObtgNu8W8grLxarXU51U3LEMe2NNieQUzZMwrGLeqdYnMjrGxRJKiRVckUCOZ6HOc9Wnt7VeW2/PtY4jnNpq7nVUWQ2OhulNUXSGKKsmingZI187IUSJsio5FckaIzmq9P1eRtIAAAJVwnfdY037v8e/ToCqgj79obov+b5tjWudWYVcbbhd4p7JLXXvNqu3T1M8lsoq9zmwQ2upa1iNrmMRVlVVVjl5J6Dt+MfFP6m9VfMu49xDxj4p/U3qr5l3HuIeMfFP6m9VfMu49xDxj4p/U3qr5l3HuIeMfFP6m9VfMu49xDxj4p/U3qr5l3HuIeMfFP6m9VfMu49xDxj4p/U3qr5l3HuIeMfFP6m9VfMu49xDxj4p/U3qr5l3HuIeMfFP6m9VfMu49xDxj4p/U3qr5l3HuIeMfFP6m9VfMu49xDxj4p/U3qr5l3HuIeMfFP6m9VfMu49xDxj4p/U3qr5l3HuIeMfFP6m9VfMu49xDxj4p/U3qr5l3HuIeMfFP6m9VfMu49xDxj4p/U3qr5l3HuIeMfFP6m9VfMu49xDxj4p/U3qr5l3HuIeMfFP6m9VfMu49xDxj4p/U3qr5l3HuIeMfFP6m9VfMu49xDxj4p/U3qr5l3HuIxORbU37g0Vqu+a6g1/DZa3ILLYqma15/W1dVB9I3KnoWSshks8LJOh9U16tWVnNrV5Lz5FrAAAAAAABCte7Z4ktlYBjWxrFpPWsFtyqz0V7o4qvZFe2eOCphZNG2RrbG5qPRr0RURzk58+Sr/c2Dxj4p/U3qr5l3HuIeMfFP6m9VfMu49xDxj4p/U3qr5l3HuIeMfFP6m9VfMu49xDxj4p/U3qr5l3HuIeMfFP6m9VfMu49xDxj4p/U3qr5l3HuIeMfFP6m9VfMu49xDxj4p/U3qr5l3HuIeMfFP6m9VfMu49xDxj4p/U3qr5l3HuIeMfFP6m9VfMu49xDxj4p/U3qr5l3HuIeMfFP6m9VfMu49xDxj4p/U3qr5l3HuIeMfFP6m9VfMu49xDxj4p/U3qr5l3HuIeMfFP6m9VfMu49xDxj4p/U3qr5l3HuIeMfFP6m9VfMu49xDxj4p/U3qr5l3HuIeMfFP6m9VfMu49xDxj4p/U3qr5l3HuIeMfFP6m9VfMu49xDxj4p/U3qr5l3HuIeMfFP6m9VfMu49xDF9l7T8qdr1nszXOKWT6bx+6X2irbFllTdf/AMDU0EMkUsc1upejq+kWOa5rnf8A23IqJzRSqgAAAAAAlWR/en157v8AMv1HHCqgAAAx2QY7j+W2WrxzKrFb7zaa+PsquguFKyopqhnPn0yRvRWvTmiehUX+xhbBqfVmKYrcsFxbWmKWbG7z230jZ7fZqanoaztY0il7aBjEjk642tY7qavU1EavNE5HNl2s9b7AtlHZc919jWSW+3SNmo6S72mCshppEarUfGyVjmscjVVEVEReS8joXnSmmsjx234fkOpMLulhtEjpbfa62w0s9JRvdzVzooXxqyNV6nc1aiKvUv8AubBRYtjFtuEV3t2OWulroKCO1RVUFHGyVlExyuZTNeic0ia5VVI0XpRVVUQ1HHeHbh+xC+02UYnovXtlvNE90lNcbdjFFTVUL1RWq5kscSPaqo5UVUX+yr/uZjINU6uyzKLZm+U62xa85HZViW23e4WenqK2iWKRZYuxnexZI+iRVe3pVOTlVU5L6T83/Umqcrq7rX5RrLE7xU32liorpNX2WmqJK+nie2SKGdz2KssbHsY5rXc0RzWqiIqIfiz6d1Hj0UUFg1ZiFsiglpJ4mUdjpYWxyUrnupntRjE5OidJIsap6WK9yt5c1OvkOjdJ5bb6K0ZXp7CL1Q22eqqaKluGP0lTFTTVMna1MkbJI1RjpZFV8jmoivd9Z3NfSbqxjI2NjjYjWNRGta1OSIif2REP0AAACVcJ33WNN+7/AB79OgKqCVab+0Xe3vAo/wBq2EqoAAAAAAAAAAAAJVxLfZ1aPeBgn7qtZVQAAAAAAASrhO+6xpv3f49+nQFVAAAAAAAAAAAABKsj+9Prz3f5l+o44VUAAAAAAEK2znFlwDiS1veb7RZBVU82D5hTNZZMeuF5nR61+PORXQ0MM0rWcmLzerUYiq1FVFc1F2Dzltdfhzavynyru4ectrr8ObV+U+Vd3Dzltdfhzavynyru4ectrr8ObV+U+Vd3Dzltdfhzavynyru4ectrr8ObV+U+Vd3Dzltdfhzavynyru4ectrr8ObV+U+Vd3Dzltdfhzavynyru4ectrr8ObV+U+Vd3Dzltdfhzavynyru4ectrr8ObV+U+Vd3Dzltdfhzavynyru4ectrr8ObV+U+Vd3Dzltdfhzavynyru4ectrr8ObV+U+Vd3Dzltdfhzavynyru4ectrr8ObV+U+Vd3Dzltdfhzavynyru4ectrr8ObV+U+Vd3Dzltdfhzavynyru4ectrr8ObV+U+Vd3Dzltdfhzavynyru4ectrr8ObV+U+Vd3Dzltdfhzavynyru4ectrr8ObV+U+Vd3Dzltdfhzavynyru4/vCi1WcLenWOVFVuAY8i8lRU/8A2dB/ZU9ClUBKtN/aLvb3gUf7VsJVQAAADQs+2/asJv8AbMLtmMX7L8su1PLXU9gsLaZaptFEqNkqppKqaGngiR7msR0srVe9emNHqjkThwbeeDZnFVU1dLPid9t15THq+wZG+GluFNcXs7WGDpbI+OZZYeUsT4JJGSM5q1y9Lkbmb7tfVuLW+5XbJtlYraKGzVrLZcqmvvNNTxUVY9jZG08z3vRI5VY9jkY5UcrXNXlyVDWbhxKaaoNgYPrhucWesuOw7fUXKxT0tzpZKeeCNWNjVHdr1O7dz3JCrGvSRYZURfqGzWfbGrMiyC74lj+ysVud8sCSuu1so7zTTVdvSJ/RItRCx6vi6H/Vd1onJfQvJTCN4j+Hh9NWVrN866dT26CCprJkymhVlNDMrUhkkd2vJjXrIzpcvJHdbeXPmhl8j2/qXDrBa8ry7aOI2OyXxrH2y5XK901NS1zXs7RiwSyPRkqKxUcitVebV5p6DmvO0tY47eLXjuQbGxe2XW+Op2WuhrLvTw1Fc6d7mQJBG96OlWRzXNYjUXqVqonNUU2gAAAAlXEt9nVo94GCfuq1lVAAAAAAABKuE77rGm/d/j36dAVUAAAAGu5/n+MazxifLMsq54qKKWCmjjpqWSqqaqpmkbFBTwQRNdJNLJI9jGMY1XK5yeg1Gwb3p6rKLTiGd6zzLX1fkSvjsbsibb5ILlOyN0j6eOagq6lkcyRtc9Ipljc9rXqxH9D+nMM3ppGWmvVbHuPB30+NsikvUzchpFZbWSu6Y3VLu05Qo9yojVfy5qvJOZh8S4lNO5hZsxyukzO10WM4TdorRX5DXXGlitUz5KemnjmhqklWN0Tkq4mI5yt5v5oif2Vc7W7p05bsVt+dXDbOG0uN3Zz20F5mv1Kyhq1Z1daRTq/s5Fb0P59Ll5dDuf8AZTbaOspLjSQXC31UNTS1MbZoJ4Xo+OWNyc2va5PQ5qoqKip6FRTmAAAABKsj+9Prz3f5l+o44VUAAAAAAEqyP70+vPd/mX6jjhVQAAAAAAAAAAAACVcJ33WNN+7/AB79OgKqCVab+0Xe3vAo/wBq2EqoAAABCc3mueruIyPb9yxTIr1iuS4hT4vU1Vgs9Rdai0VlHV1VVE6WkpWPqHQztq3s7SKN6MfA1JOlHtcahtPMc72RaMW2JFp3LKHE8L2fabjTdpbal98r7XFHNT1FetnSLwqKJs06KyPpdUPia+RYWNRvXOmWOvu9+zjZNbju5sKqZtpVN6xLJLNhj66poGS4vBRtqqm1TwTTzUsyOli5NpnSRv5NetM5Hq3NYnbNo1V807eb3gU2Pujp89ssFfY8Qq7bBG+unploLjVUEaSvtjqrs5KiTtlRGSOer1Y53SdDEsWv15xLQmubBqLKcdyXUturossraywz0dLTNZZqiiqqanqnMSG4eG1skEyOpnyo9Ie1erV5c83p3VFzsF84QKmXXFZQeK2rrxBeJZLQ+NbVcp6K1c2VDlZ/QnfI6tTpf0uVVnTl/nJ1rDX2xNf1GBZNlU218LsniJV41DNieHQ3irt9U291lRLT1NFLba2eCKeB9G5j44msXwZqPX/7ZW+HPVD8G3HjlVQYdmlDZLXqOCz0FXlVLTpW03aXmedaOWSkTwZkiM7FexjVFZG2NFait5J6uAAAAJVxLfZ1aPeBgn7qtZVQAAAAAAASrhO+6xpv3f49+nQFVAAAABI+JPE8pyDGsWyLD7FNfq/B8utmUOs0Escc1xp4HPZNFE6VzY+1SOZ8jEe5qOfG1vNOfNNQzm+1HEPk2ucfwTDMvo6DGctoctvl4yLFrhZIqKCkbI5kEKV8ML555pHNj/ote1kfaq9zebEfNsM19kuHaU0lkN31xeqi34TsW8ZDk1jhs881wSOomusNPXpRtYs07oZqqmqEaxjn9DUexF6UNKfhWZXfLb7tSw4VsvD8Lp911GSVDLbibXXpYaiwU9LFeqe2V1JM6dnhb5XvalO+eNs8j0Y2SJyM33EtWMqNi6zyq02XaF7tdftG8ZLdbjmlgpre/tm45V07K5KSnpqdaKJ9RFA1q1EEMj5uT0RySse/2YAAAAASrI/vT6893+ZfqOOFVAAAAAABKsj+9Prz3f5l+o44aZtKwYtsPimxHXW3bZb7xiLsPuF1sNju7Gy2653tlTGyoe+nf/TqZoKV7XMa9r+hs0z2oiorkkOG5PmVs2vadI6i2PcMd1tcNl36y2uqt0NJWPioaKwU9ZNQ0jquKeOOCG4NqoWo1qoxvaRtRvQ3pwVy2psStv8ArXe19y995vUU+yqqjwuajpY4rXLbKGujjpouxY2ocqJFEyft5ZHK97FZ2Sc2rzVu/wDiWtOtbrXyZjdaWe7WPDbvbLve24tJWwS3C+UtJUyUdHbpZkfbpoJ39k+pYr2OY5O1e5UVu9WbTOmsn2zxCVe87RZ8n8X6Wxxz5XkFuokuNHTtsjHTVTKiKGNKV6IiydcDY0a5qOajVRCbWPiI4pfEy0yRvvcN0wzA8NvFW2pnx6lt1ynrY+qeS9VF1qY6qNsyRrC11L0OZL2quVzuUabDi2R5dhV7zrF8f2Vns93yrcl+ihoLBa8fkudTDS2uKeZ0M9ySGip2N5xLI6VsrnNjjbG1jnSSGgVu3cv2xguN37L6m3V1dcsWwetqa9lso46mpmZsCGn63Twt59LmRNcsUb+w63Ocxqczc9c4Thmwb5orHM9xGy5LaZMi27K+gu9BFWUzntvs6tcscrXNVUX+y8vQegeF+lobJeNv4diLGMwbHc7koccghd/w1Fzt1FLXUdM3/LHBFXSVTUjYiMjcsjE/y9LfO0uLybIbwz3m4avwnPr1nNsyjLb3a8vnSGhnr6uno5pXSSJSVSq6DqbDEixL0xwxsRWtYiJ/c711vjTmUawsGocdxBmZXabYFystjpK5zLJjUE9NTPZTUjpYY0kRqs6mtWKGNZ6hVc2OJHKlMx2m1ZjuvtTbQ0g2udW1Oa0tsuddcW8r5dZblO2ku8V2c7k+SpSSNk0zHJybJb4ulGtij6fWQAAAAAAJVwnfdY037v8AHv06AqoJVpv7Rd7e8Cj/AGrYSqgAAAAAAAAAAAAlXEt9nVo94GCfuq1lVAAAAAAABKuE77rGm/d/j36dAVUAAAAAAAAAAAAEqyP70+vPd/mX6jjhVQAAAAAASrI/vT6893+ZfqOOG75ngOC7GtDcf2Fhdhyi1smbUtorzboa2nSVqKjZEjla5vUiOciO5c0Ry/7n9ocDwa2R2GG24ZYqSPFmPjsTYLdDGlqY6NYnNpURqdgixqrFRnTzaqp/b0HTo9Vavt+Xz7BoNb4tTZTVSLNPe4bPTsuEsixujVzqhGdo53Q9zOau59LlT+yqdW1aW05YrdcbPY9TYbbqC8VUFdcaWksNLDDWVMMiSwzTMaxGySMka17XORVa5EcioqczhyHROkMuyVc0yzTeDXrIFdE9btccepKms6o0RI17aSNX82o1qN9Po5Jy/sZbINba6yy/WnKsqwHHLzerBIktpuVwtUFRVW96PR6Ogle1XxKjmtcisVF5oi/3Qxl/0dpXK56+pyjT+E3ia6VkNwrpK/H6SodVVUUbo4p5VfGqvkZG97Gvdzc1rnIioiqh3G6p1cxnZs1tirWcmJ0pZ6dE5Mq1rWpy6P8ASrVahP8AaZVk/wA/1jp5Bo/S2WWyjsuVagwm82+3VFTVUdJcMfpKiGmnqZFlqJI2PjVrHyyKr3uREV7lVXc19JsuP47j+JWWkxzFbFb7NaaCPsqSgt9KynpqdnPn0xxsRGsTmq+hET+5gcU1Zh2IPZJb7bFUOo7hcK+1OqoIZH2jw5/aVUFJIjEfHC+RXv6VcvLq6EVI2RsZsNVYrHXXWgvtbZqGouVrbMyhrJadj56VsqIkqRSKnUxHo1qO6VTqRqc+fI1eo07gkuY23NKazwUFTb7hU3mWmoqaCCCvuk0CQJX1XSxHzVEcKyxsc5/JEmeqo5zY3R7sAAAAAACVcJ33WNN+7/Hv06AqoPOuIXbdFBtreMOucAwq+W1c4onS1F7y+rtU7Z/Fex9TGxQ22qa5iNRio9ZEVVc5OlOlFduvjHxT+pvVXzLuPcQ8Y+Kf1N6q+Zdx7iHjHxT+pvVXzLuPcQ8Y+Kf1N6q+Zdx7iHjHxT+pvVXzLuPcQ8Y+Kf1N6q+Zdx7iHjHxT+pvVXzLuPcQ8Y+Kf1N6q+Zdx7iHjHxT+pvVXzLuPcQ8Y+Kf1N6q+Zdx7iHjHxT+pvVXzLuPcQ8Y+Kf1N6q+Zdx7iHjHxT+pvVXzLuPcQ8Y+Kf1N6q+Zdx7iHjHxT+pvVXzLuPcQ8Y+Kf1N6q+Zdx7iHjHxT+pvVXzLuPcQ8Y+Kf1N6q+Zdx7iHjHxT+pvVXzLuPcQ8Y+Kf1N6q+Zdx7iHjHxT+pvVXzLuPcQ8Y+Kf1N6q+Zdx7iHjHxT+pvVXzLuPcQ8Y+Kf1N6q+Zdx7iHjHxT+pvVXzLuPcQ8Y+Kf1N6q+Zdx7iNA3Xet9VmM49T5xrXAbRZH5/hHhNZac3rbjVRqmTW1Y+inltNOx/ORGNXnM3pa5zk6lajHelAAAAAAAAeX+GS/8SUPDbqiGxan1rWW1mD2JtHUVewq+mnmgSgh7N8kTbLI2N6t5KrEkejVVURzuXNaX4x8U/qb1V8y7j3EPGPin9TeqvmXce4h4x8U/qb1V8y7j3EPGPin9TeqvmXce4h4x8U/qb1V8y7j3EPGPin9TeqvmXce4h4x8U/qb1V8y7j3EPGPin9TeqvmXce4h4x8U/qb1V8y7j3EPGPin9TeqvmXce4h4x8U/qb1V8y7j3EPGPin9TeqvmXce4h4x8U/qb1V8y7j3EPGPin9TeqvmXce4h4x8U/qb1V8y7j3EPGPin9TeqvmXce4h4x8U/qb1V8y7j3EPGPin9TeqvmXce4h4x8U/qb1V8y7j3EPGPin9TeqvmXce4h4x8U/qb1V8y7j3EPGPin9TeqvmXce4h4x8U/qb1V8y7j3EPGPin9TeqvmXce4h4x8U/qb1V8y7j3EPGPin9TeqvmXce4jVrRcdo3DikwtdmYdi1gdHgGW+ApYskqLuk6Lcce7XtVmoaTsunlH09PadXU7n0dKdV+AAAAAABKsj+9Prz3f5l+o44VUAAAAAAAAAAAAAlXCd91jTfu/x79OgKqCVab+0Xe3vAo/2rYTu5hxEaiwPIa3GckySsjq7UyCW7zUllrq2js7JvTG64VdPC+noGq36/OpkjRI+Ui8mL1FIMJm+aYzrnEbvneZXL6PsVho5K+4VXYyS9jBGnN7+iNrnu5In9mtVf8AZDNgGDyvNsYwiO1S5Rc/AmXq60tkoV7GSTtq2pf0QxfUavT1O9HU7k1P9VQ0O18Umlrvdaa1019vkMdZd5bDT3OsxW7UlpluEc74HU7bjNTNpFes8T4mokv15E6G9TlRFoWSZTYsRoYbhf61aeGprKeggRkL5pJqieRscUbI42ue5Vc5P7IvJEc5eTWqqT22cUembtcIqGku+Qtgnu77DHdKjELxT2l1e2pdSrAlxkpW0nUtS1YUXteTpOTEVXKiLmJt96ohxq25YmTyT0N5vFTj9tZTW2rnq624U9RLTzwQ0scSzyqySnn6lbGrUZG6Tn2adZtOL5ZYMzta3nG6/wAKpWVE9HJ1RPikinhkdFLFJHIjXxvY9jmq1zUVFT+xlwAAAAAASriW+zq0e8DBP3Vaynw1dLUyTw09TFLJSyJDOxj0csT1Y16Ncif5V6XsdyX08nNX+yocwAAAAAAOCur6G10c9xudZBSUlNG6WaeeRI44mInNXOc7kjURP7qpMeE77rGm/d/j36dAc2NcS+lsuv8AQ47Yctnmku1TPR2qvls9dT2u6zwq5JIqK4ywtpKx6dD1RsEr1cjHq3mjXKlPMHhWbYxsTG6bLsOuf0haauSeKGo7GSLqdDM+GROmRrXJykje30p6eXNOaKijNc2xjXeN1OXZjc/o+00kkEU1R2MkvS6aZkMadMbXOXnJIxvoT0c+a8kRVNCufFNpSzXi62e6X6907LDdEst2uj8Vu30Rb6zqY1Y6i5eDeBwoiyx9T3zIxqPRVVE9JRMpyex4Xj9dlGSVq0tut0XazyNifK9fSiNZHHGjpJZHOVrWRsa573ua1rXOciLO7nxS6Xs93vFpuF4yCNuPXJbTd7k3Ebw+1W+qRWdTai4tpVpImt7Riue+VGNRyK5yJ6TOXLeuq7TZr1fq7KemlsF+TF6xrKGpknddlWNG0cEDI1lqZnLNGjWQter1dybzVF5bFi+ZY7mMdwfYKyWV9prXW6vgnpZaaelqWsZJ2csUzWyMVY5YpG82ojmSxvbza5qrmwAAAAAAACVZH96fXnu/zL9Rxwp9JV0tfSw11DUxVNNUxtmhmhej2SMcnNrmuT0KioqKip6FRTmAAAAAAJHf6+hl4s8Ct0VZA+rpteZdLNA2RFkjY+5Y8jHOb/dEcrH8lX+/S7l/ZTbNgbZwTWD7VTZbc6xtdfZZYbXbbba6u6XCtWJnXKsNJRxSzyMjbyV72sVrEc3qVOpOeQwbPcR2VjsOVYTeo7lbZnvhV6RvikhmjcrZIZopEbJDKxyK18UjWvY5FRzUVORyXjNsYsGSY/iN3ufYXbKZKmK00/YyO8JdTwrNMnU1qtZ0xtV311bz/snNfQZwnOW8QepsIqbvQ3/Ia1KuxXO32atpaKy11dUJW10aSUkMcVPC98zpGKip2aO5KvJeS+gy2v8AbOC7OfdabE7jXeHWOWKG5W66WmstVfRrKzridLSVkUU7GSN5qyRWdD+l/Sqq13Lo5vvTWOvJaynye91yT0NVb6CaG32auuMnhdcsngtMxlLDI6SZ6Rq7smIr2tfE5yNbLGr1k3jr2+11ktkcmR22syO4zWm1U17xW62mWqqYqSSrka1lZTRL0pBDK7tFRGKrFajld9U/Vm3lq/IL54v2fJJKiZ11msUVSluqm0FRcImPfLTQ1jo0pppGpFKjmskcqOjexfrNc1N8AAAAAAAABKuE77rGm/d/j36dAVUEq039ou9veBR/tWwk2tF9uOmbht7Csn1LluX12X5NW5DYIrbj1TX23IKevp4oo6SesZE+no1Y+J1PL4Y6NjI2sk5rGqKk1zvG8xtGcZ1izdU5NHPl2wNaX63Nsliqqy001BQfRMdWqVsUKQMZA6jlarXdm/pRr+zRnNyaXkWl6y8a73NjGO6Xud6qq7CMjmluN0wKstV9mu3h8dRTU9ZO6V9JkNW9ySyQ1lKxXRrT/UdzqkR25ZvgVbW7Mudfi2pci8Z6284PV6pvtPi1VTUmO43TspvC6R0zo2x2pkaMuaTUc3ZPkSpY1Yn9SMbqOCcL9NcYdWvyzR1ZLJdKDZLMuWtskyLUqtcjrUyv6m/XREa2SlbL6Gua2SJEciOMfctV7mv1vw9+ZWjIYr7U4BgsGM3JddV99vFnusEMa1iQVqVtNBZallVyknfV9m2RiojnPSNzEotu0xdaStu2WR6trmZBXcSMVxluK2aTwuWxsr2SMm7VWdfgTebpEci9kiuc7+6qq8lDDkGTcNt14Z7fgOcwZtfsyvjI5K3EbnR22ggmyeqrm177jNA2k7NlMrZ29Ernvd0MjR0jkaeg9wxTxbV0vdq16pZabJK+CbqbzjZXTWqrjpJHL/4V5rLE1V9HXM1v93NJpoTh7vl81/SN2Rm2eUtpp86vt9TCKqkoKW3udDklZVUb3qtG2ufE57YKpGuqFY/qb6FiVGGi6S13srTF1tu88osGSZRaqrIcpsNTYHWN8lxxG31eQVckFwt1NHH208U8jkkqVRrpXwTQPaqxUyMd6H0p11GfbnutvexbJV5pFHSK1v1ZKqC0W+Ctexf7K1J4nROROXKWCbmnNVVa0AAAAAACP8Vkd1m1LSQ2KtpKO5PzjCG0dRV0zqmCGdcotnZvkibJG6RiO5KrEkYrkRURzefNNF1divE5FnG4JKfZ2uqOSbNKV881Trq4PjrH+LtnaksDUvLOiNGtZGrVdIvaRSu60RyRx0Xxc4p/XJqr5aXHv0eLnFP65NVfLS49+jxc4p/XJqr5aXHv0eLnFP65NVfLS49+jxc4p/XJqr5aXHv0eLnFP65NVfLS49+jxc4p/XJqr5aXHv0eLnFP65NVfLS49+jxc4p/XJqr5aXHv0eLnFP65NVfLS49+jxc4p/XJqr5aXHv0eLnFP65NVfLS49+jxc4p/XJqr5aXHv0guQ4Jf30mU27KNeX297/AKy7VUuM51bbDVR2+BrpVWgnp61XSx2+igj7JJqKSo6pOylTpmWTqdgM4wLictOwq3JeIzK8UyzEYqts9krm4DcL3YrQ1FYrXVNqprpA+J7Xp1JPLDWJEiK5aiNPQXrR+P1+W8DeAYrarh4BW3nVFqt9NVc1TsJZrPHGyT0en6quRfR/sThtZkOwNTas0JbNTZnj+V4zdsXdeZK6wVFNbrBFZaymlqZobi9qUlUj20ro4Up5ZXPbO1Va1Ef0TzCdI0mNaw1Xfdg6Rra+wyZnklZsO0JiU9wr7h1TXKK01NbQsifPWQQo+PoRY5OhskT2tRrepuhv07sObXmIW7KMAyCjsDcNv9DaKC469uWUXG03iS91cqOhip6uBbfXvp30iw18ypH/AEnf1mIqq6h5ZpDKqug35kl211d71mNdc8EpbbeZ7H1V9fBDR2Tw51O6PtEVnawSLMkD3sR0Ko5zuzRU2yruV2t2FcRmol1pndxyXYGTZBBYKePELkturmV9DBTQyvuLoPAooOvqV73zIjWMcvJV5ItY25YrnjmBakobrXuq6HG8vxmO/T8lcyZrF7GKV/P09KVrqSXqX/KrUcvJGqqaRgnD3fc9r9xW3Os1z2x4nkOw7hJUYxDS0FNb77bnQ0nUrppaN1YsM6NdE90NQxFa1yNVq9Sml2TWOz8D2vnHEfLYL9k9tx/Y13fDhctpVZFtlXTUcU16tLejrnrWdKonpckkDamGLpe/61+11Ux3jiE2dfbJHMy0LYsWoartad8Tvpdra6ola9r0RzJEoqu19THIjkR0fNE/1sAAAAAAAABCts0WfV/ElreHXOTY/Y7kmD5g6WovdjmusDoPD8e6mNihq6VzXq5WKj1kVERrk6V6kVutcN+K8TlNw8aupqHZ2urXTRYXZGQ0Nx11cJqqlYlDCjYppEvMSPkanJrnJHGiuRV6G/5Uovi5xT+uTVXy0uPfo8XOKf1yaq+Wlx79Hi5xT+uTVXy0uPfo8XOKf1yaq+Wlx79Hi5xT+uTVXy0uPfo8XOKf1yaq+Wlx79Hi5xT+uTVXy0uPfo8XOKf1yaq+Wlx79Hi5xT+uTVXy0uPfo8XOKf1yaq+Wlx79Hi5xT+uTVXy0uPfpo+2MP35V2qzu2LkWPZzhFNeIZsnx7EcOrbbca6gSOVERFfc6nwiJsywSSUzY+qWON7UVeaxvnF911xF3W15Q/g0qKbVuD1MtuWlsV+x+e3VFXIztPDpLdBKsbrbFJGsDEidFEr5I3va+Dn2juDhltNRYOJixWa8W6htt+iwPJpbtSPw6utN1Wd1fYE7atrqq416XVXo3kyeOd7W9m9vW5V5MsuxH3LXXEZZNx3XGMivWLV2IVOKzVFhs9Tdqi0VnhbKpj5KSlY+oWGdrFYskcb0a+CJH9KORxEYdPXfZG9cRznMtSXGTCcw2LfcjdZbzZ1fDSUTMap6Wmqa+ne1Up3z1VGkzY50a5r1i5tbJzamp23VudxZTjtLjusMmoNwUU+wkyHM/oOppqSrq6qjrktNQ+5uakVSxyyQpA5JHdgiLGqRK5GOwFPpTLa/UmTWmzYNfWU9xtuDUV5sFu1jcMdgqK2DIKSSolm8JrJ5rhWxwNqFnrIY1ifHye6d6tTlT9ga/uWD7Cym447rC+U2K2nZevbjRwWDGameJttoqJjZ30tPSROWSOHkrXJExelU5cufoLbrf6Qz/AIh8l3La8fyC0YvHiFuxWnkvtnqrTU3Ksjq6mqkeylqmRzpFE2djEkkjajnyyozmjXKsmzDDctya1XfGbVJfYcip+ISguVxr7XRRz1dDRPdBLTVvKSKWJY4qJ1M1JJGOjakXS5PqKibPxA6P2Rl9bqLCrZtvYFRM7J7u65ZnHb6Dw+00U1hr4nIjqSkhp4Ef19gyZY0e187Va7rRnLpVVXe6PQ9j01dsDbimZ4fmmJ4/bY6K1yRWi4Sw3WlqIrhbJOlGSwOpIZqiaJrnPhRlRFKi9PN/rIAAAAAAAAEq4Tvusab93+Pfp0BVQSrTf2i7294FH+1bCVUAAAHTutotN9olt17tdJcKR0kUywVUDZY1kjkbJG7pcipza9jHtX+6Oaip6UQ7gOlZ7JZsdt0Vnx+0UVsoIFesVLR07IYWK5yvcrWMRGpzc5zl5J6VVV/up3QAAAAAASriW+zq0e8DBP3VayqgAAAAAAAlXCd91jTfu/x79OgKqAAdS7Wm1X+1VtivtspLjbbjTyUlZR1cLZoKmCRqtkikjcitexzVVqtVFRUVUU7YOla7LZrGyoistporeysqpa2obSwMiSaold1SzPRqJ1Pe5VVzl9KqvNVU7oAAAAAAABKsj+9Prz3f5l+o44VUAAAAAAEqyP70+vPd/mX6jjhVQAAdSO02qG61F9htlIy5VlPDSVFY2FqTzQQukdFE+Tl1OYx08zmtVeTVlkVOXUvPtnSq7JZq+40N4rrRRVFfa1kWhqpadj5qVZG9EixPVOpnU36rulU5p6F9B3QAAAAAAAASrhO+6xpv3f49+nQFVBKtN/aLvb3gUf7VsJVQAAAAAAAAAAAASriW+zq0e8DBP3VayqgAAAAAAAlXCd91jTfu/wAe/ToCqgAAAAAAAAAAAAlWR/en157v8y/UccKqAAAAAACVZH96fXnu/wAy/UccKqAAAAAAAAAAAAASrhO+6xpv3f49+nQFVBKtN/aLvb3gUf7VsJjMS3Bt7P8ALsqtuJasw9cexLKpsZq7hcczqqetl7FsL5J46WO2SMX6sydLFnTmqKiuanpPzYOLXUFdBb6e+ZJDTXOut1denx26gudbSU1tpauemlrJql1HGkELH0z0fJM2NjHck6nI5j343LOMnW1moLHW47askvMt0ym1Y5V0U+N3agrKFld6Y6p1NNR9s5itRyx/URsyte1j1c1yJg7JxsWm9a0zzN0wOamu2C5Gllkss1x6VraN92W2w3CKbsf/ALT5I6lOXQvKSmlj5+hHrUk4hNSrn0etUyOr+mZro6xxy/Q1d9HPuTad1Q6iS49j4GtQkTHqsPbdaK1zenqRWmmQ8cvDHU2pt7ps8uk1DJbFvUU0eJ3h7Zre1HLLVx8qXnJBD0OSaVvNkLmq2VWO9Bul04hNQWfNaLX9bl6Ou9fJQwRup6CqqKKKat5+BwzVsUbqanln5f0o5ZWPk6mdKL1s6qKAAAAAAAAASriW+zq0e8DBP3VayqgAAAAAAAj3DNdrdYOELVF9vFWyloLdrexVdVO/n0xQx2uFz3ry9PJGoq/+hxYHuvZWWPxXJLvpKS2YTm/J1quFLeH190oopYnS0s1zoWUyR0kcsbURXR1M/ZPlia/kivezKt4m9HOxqz5emctS03/H6rKbZOtvq0WqttPJBHLIxixdfX2lVTsbD09rI6RrWMcvoMDW8WOBuzHX+J47aMgua5tklZjNU+aw3OjqLLUwUDqtEqaaWlSSNzkWnXplSLlDMtRzWKN7kyHnbcPraXILhJn6xUeNUk9wrauW010dPLSQ1SUs1TSSuhRlbCydWxulpllY1XN5qnUnP+Wji10Le8hgxSjyy5xXWe6U9ldTVuNXSkWnrKljZKWKoWamYlP4Q17VgdKrGz/W7JX9LuXfbxN6RddLvafHORslko7nXTzvtVa2kqIrdySv8EqVh7GsfTqvKRlO+R7FRUVEVFRJ/mfGtjFmtV9yLDsRr8gs9q15XZ9SVdW2qtC3COnniibFHHU0yPWKRsqPbUtRzHJ/lRyLzN4sO3M8t2yLNrXb2vLHjtVlNJVVFgr7Dkkt4pamalRH1FNMs1HSPhlSNySM5Me17WS83NViI7rbq4hU1PQ5pWWvEkyBcCxCXK7w1bh4KjOp0jaSma7spOb5vB6lyr6OzbG1VR3aNODM9w7f1dgV7z7ZGq8PhpbY+ghpoLHmlVXSVElTWw0y9fbWynSNrUm6+adauVvTybz6kT8Q12uVLmGX4JrtcgwTCo3pUX9botO+7T08qeHstkHYuSqZBC2f+q6SNklRF2DF5dc0dgttxobxbqW7WypZUUdbAypp5mf5ZIntRzXJ/wCSoqKdkAAAAAAEqyP70+vPd/mX6jjhVQAAAAAASrI/vT6893+ZfqOOHDne29h2zb1Bp/XGvMdvtdU43Nks9Xe8nntMUUUdUyn7NqQ0NUr3K6Rq816U5c//AFx2vOLHW2ZRWG0Xh1XaMqvFJWVc1pp6OquMFLDSV09DUVTq2GHsW0aVFLIjamVYmqx0TnIztGtMtZ+KTRV8xq+ZdSZtJBa8ettPeKyWutNdRPfQVHUlNU08U8LJKuKZWObC+BsjZXcmxq5yoi4rXPFbr7YWwbvr5kVba6uK+/QNjStoayCouksdphuNT2lPNTxvo3RNlkYrJuSr2XNF5uRqZW4cUejbbj1rymbMaia23ekq7jBLSWWvqXRUVLL2VTWVEcUDn0tNE/6r6iZrIm+jm7kalhnF1bc22FR4JbsFuMCVee3XCfDapKmnajaO0z3BtW1s1MxHq/sHRrE13NiOY9XKjmo7pYXxTZ9eMMw/a+YagslowLMLtSWhtwt2Wy11dbn1dUtJTTVVNJQQRthdULFG9zJ3qztWr0uRHKlky7O0xzJMUw+gtrbhdsqrpYo4nTrEymooI1kqqt7kY5elidmxrUT60s8LVVjXOkZLNcb/ANu53rWPc1XqHELbh8tqr7six5tVVFy6KeOZWM8HW1si5vkia1f6/wBVrlcnWreh2RwjiJvm1n2ek1br6kusz8epL1kVVXXp9LbrNVVVLHPT21KhlNK6oqlSVrntbG1I4lSR6o58UclJ1xnNu2VhFpza2UtRSR3KFVlo6lE7ajqGOWOemk6VVvaRSskjd0qrepi8lVOSrsoAAAAAAAJVwnfdY037v8e/ToCqglWm/tF3t7wKP9q2EwmseGLCsbznNNj5vgOEXjJ7zmlVkVlva2qGouFFSvigbCzwiWJJI3tfHIvJjlanVzR3NVND1VwqbEwOsrKu61mE3JJte3fFGU1ZHPW0ctZVXmsro/CIHMj7al7KpjZI3ra5y9bU9HJ6/ik4cN2R4tT07K2y0zrLmeO5HZcYrs3u99o6aG3Ki1CNutdTOqo+2RURsCQuii7FqtVVlf043MuC7OL7qKzWCw5NYbdmVsya71VXUK+VaK5WKuyOS6rRyvSLtEezlTSsXoVGzRPYi9Ejnrlbnw470v277Vn+QZPbLjarFsB2T0ks+X3hyLalglgioo7R2fgFNLCyVf6zet8yoqq6PtHquLw7g/2Xj2DY/jNbfMZfVWnSF91rM+KpqFjdc62emkilaqwoq06JA/qcqI9FVOTF9PInBxmcWVudUOst5sV7mxm4XRazMcgpIqGptlJR08rGWmkkjpbijkt8EkUs74nRvd9ZkjImMX2AAAAAAAAAASriW+zq0e8DBP3VayqgAAAAAAAi/Dpj9vy3g01jit2STwG86xstvqeyd0v7Ka1Qsf0r/ovS5eSnW1vhvEljtDhmvr9esMt+M4Y2Klqb5aaiaouOR0dNGsVPBJQz0qRUCyN7OSZ8dROqLG5kfSj+tkgxnhJ3Xa7DjmIXyh1fdLNg2B3jDLZFVXC4SpeFqa2hnimqGtgjdRKsdEreqKSV8EvRK1ZuXSm82DQu5aK4YBkV2u9tq5MWz6svi2evy653ZbdZaqzS26SCC61UC1VXMyWaSqa2aONOcywpIxsbXrNcm4Kd05Vqy3aprL7hVPRYDh9zxHE62Ksq3S3ZtVU0qsqa9i0/KkVlNRRoscS1HVI96o9rURq1DK+G7Ob5sDNsrpLrYmUmSbBwXLKRkk8ySMpLKtGtUyREiVEld4NJ2aIqtXm3qczmvLQrbwUZvb6O6Y06SxVdFQ2vKqewXmvzHIKyV090gqIYES1Pf4Bb+iOrkbLLGlQsiN5tjjc9VZsGxOFHYmXYhPYLbeccjqJdJy63R09ROjPpN0kDkl5pCq+D8onfW5dfpT6n+1KtWCbVzja2M7H2zacUx2kwWmrvoa249fKm7PrK2sjSGSeonno6XsmRwo5rYmser3TK5Xs7NGv07dWnMrzO47mwjH6Zka7hwano7bc6lk3gVLcaRs8EkVVJGx/ZNdHUUz2Ly5v6ZkRFVnpze4OE/XmSaQy7U+pNdYPh7svfbW3BKC2R2uCrhp6yKZzZnUkXW5ezbM1i8lVFf6FbzVTp12vc10Nas6t+qrHR3PXt6tskmP4pRxy+EWW+1Luy8HpIY4lY23zSytmk6nxspVWZ6colXs7HrbEvEDXeLYIlUtT4uWWhtHbqqqsvg8DIur0+n09HP/1NjAAAAAABKsj+9Prz3f5l+o44VUAAAAAAEqyP70+vPd/mX6jjhi884ccY2fvq3bG2NhuH5VjNvxCeyRW++W6Oukjr31sczZmRTROjRqRte3rRyO5u5cuSqp0sn4bvp/Y19rLfJarHhd21NJrano7cxYp6DqnkVFhhaxImQshe1rURyclaiI1ETmTmv4VdzZtZJ6vMrxhlqyCw4jYMdx2O11dXVUdbVWq5Q3FtTWOkhifBHNNSwxrCxsqxMc93aSuRp2ouH3f7dsLv+ot+vJcmjzKS/RY+y/1sdEtFJjrLSsbq/wABV/atdEyTn4MqPTmn9P0In71lw6b60xRY3esQrsBvOT0+IVeKXJLlWVtNQU0jrnPWwVsKRwPkqGotQ5H0zlhV3SiJO30uMvifDnsuybbt2V3KuxaSyWzY91zZs1LU1DKmeCusE1vdClMsKsicyd8bkTt3osauXmjmo12OwTh/3kmqcJ0FntHgtBieM3i33O5Xa1X+srq25xUNelfDTsppKGBlP1zxwI+Tt3q1jXo1qq9HNrWwLHcqTcmtdkUttqa6it8N4xe4JTQvlfSR3LwSWOqc1iKvZpPboYnO5cmJUI9ytYx7m6DqHhGxXWuj34wmC4FT7IqcfuNpq8lt9sjZNUS1KSpzfV9i2d7FR7OrmnP6v9l5IcGo+Hm98MVBidZrZtoprDFj1PR7FsNOlVLFW1tNTNT6XtzIoHyyVquY9j41Y3wljoufTJE3qpvD3jd8xvVtF4zW+S33a+3K7ZPW0Ejub6Ga6XGouDqV3pVEdF4V2bkaqp1MdyV3+ZaOAAAAAAACVcJ33WNN+7/Hv06AqoJVpv7Rd7e8Cj/athKqAAAAAAAAAAAACVcS32dWj3gYJ+6rWVUAAAAAAAEq4Tvusab93+Pfp0BVQAAAAAAAAAAAASrI/vT6893+ZfqOOFVAAAAAABKsj+9Prz3f5l+o44VUAAAAAAAAAAAAAlXCd91jTfu/x79OgKqCVab+0Xe3vAo/2rYSqgAAAAAAAAAAAAlXEt9nVo94GCfuq1lVAAAAAAABKuE77rGm/d/j36dAVUAAAAAAAAAAAAEqyP70+vPd/mX6jjhVQAAAAAASrI/vT6893+ZfqOOFVAAAAAAAAAAAAAJVwnfdY037v8e/ToCqglWm/tF3t7wKP9q2EaHzbJ8zrdnxZLc/DGY7n9xsltTsY4+wooqelfHF9RqdXJ0r16nc3Lz9KryTlI047exu+R2afBcZuNZaMcumQQ0OOZ1T3qspPA6qCnWC7x00Cst7v+JbJI6OSqbGyKdU6+z5L3YuIramYZppluKUOC/QWUZndbJeaixZnDe7fc6Sns89Uj6Wqjo+vkxzJHK1zaeTtqRIlTspe3Sdat4qtx3PUuHW/PL5HFm13zHGJqa6R0VOkd7xm43+Kjm5MSNI45YuqWmkRjUc1q08qKizIpQ7txvR2LNr3h9xxLEaie3WzJ6+GhtWe01wu9NJZ4ny9lc6OGFzKHt2RvVqtmncxeTXsR3UjcfU8bmeWunrLnetC2+nt1rx2xZnXyQ5h2ssNjuk6xRqkfgTUfWs6JHPp0d2XKN3TUKqt6s/T8bmI1G6masbS434JJl82ENc3K4HX5twjY7nO+0JH1tolnY6BJu26+rk5YkYvUelwAAAAAAAACVcS32dWj3gYJ+6rWVUAAAAAAAEP0Nk8OEcEmus0qaSSqhsGq7RdJII15PlbBaIpFY30L6VRvJPQv8Ac0yPLd4YNr3AN85Ttp+RRZTc7DDkGLfRFDFbKWnvNXBAxttfFElZ10zqqLk6aonSVsciq1quarO1ifFnnma2jFaix6esTLnn98ulpxijq8vkjZJDbFqUrqqskbQOWnajqVEjZGydz+1b1dnyUnVj49rlhetMefsCHHK7LZbNeckuzMiymix576Wnu1VSw0dExInsq61W08jWxIkbF7Hm6VFenPY9p8VefZDiOzpNU2mDH7bh78YhpcsdcI5q6Z12bbalixW+akfCnKCukY5ZJF5KjFRrupUZt2QZ5sfQWw0x2/ZtdNlWa9YTfMjoW31bRa6ujrbTJS9qx1XDDSUsdLJFWtVz5WK6NYHO6la7pSf3XjI2FmyUFt1nSYE+vtWx8ax66V1hzNt6tFxobinX2cNX4Aio5VbJFL/Sa6LpRzHPVeSbvqzjcxHaG2LTrugpcbSlyWovFJZ30OVwV13jlt/UrluFtZGjqKOaOKeSJ3ay80Y1HpG56NPSwAAAAAAAABKsj+9Prz3f5l+o44VUAAAAAAEqyP70+vPd/mX6jjhjM8yXOMv3nQ6NxDNq7CqOhxhcsu14ttFSVNfVJJUupaelgWshmp4mI6OWSRzonvXlE1vRzc5dV15xE5dbdmW/QWdUUOQ3lmYXTFH5JE9tIs9PS2SG7QVUtOyPoWd8U7IpWx9nGj2uexEaqRtwWXcc8uNaose1FwvDaCC62a8XhaPI9hU9plqnUM7ovArcxaeSatqnozq6Viijar429ornejM13F9fo80vFutupaefErDkWLY9W3qoyLsatH32nopKaVlE2mejkifXRslRZkVERHM7RVc1kUynit4ibNoWbIqiooqbMZrVsqupKuluNNJRxRWa8U9NG+SKS2c5JYGSyxwtarGSNha6bm6f/h/TNt4gLy7KU1zkGCUdFmKZVRY+tvpb06op30k1t+kJLjHO+njc6JkcVZGjVjarpKfpVWdaKloAAAAAAAAAAJVwnfdY037v8e/ToCqglWm/tF3t7wKP9q2E/Fh0FPiuYXvJ8Y3NndsoMjyCTI7nYIo7O+gqKiRI2ys65KB1UyN7YmNVGTtcic1a5q+k1TG+DLFcVhtEVq27s2N2N4/VYxYJY7nRwPtNvlkp5WxwrDSs6nRyUkLkfL1ukRFZMs0fJibFb+GfHaG42TI5c8y2ryW0Zg7NJ77O6gSpuVY+3fRskNREylbTNgfRIyFUhhieiMa9r2yK57uhUcIGqarE9Y4nUVN9cmpr3TX2wXBKmJKt0kNS2pWCdyRdL4JJI4lexGt59lGqKjmo4xMPBPgLIILdPsPPam1W+nv9HabZLWUXg9sprzFOysijVtKkkvpqOtj53yyNdExOtWrI2TM3jhK1xe7VeLPVXrJGQ3vDrNhFQ6OpgRzaG2yySwSMVYVRJnOlcj3KitVETk1v91z1r0LarHnFRltl2BmtvtdZe5ckqMXpbjFFaprnLH0SzPVsSVTmPVVkdTrUeDrIvWsSqU8AAAAAAAAAlXEt9nVo94GCfuq1lVAAAAAAABJeFempq3hQ1BR1lPHPBPrzH4pYpWI5kjHW2BFa5F9CoqKqKinSxzhcxewVGO0VRn+b3rFcOrGV2N4pdK6nkttrmidzpul7IG1dQ2n58oWVNRM1nJionNjFb+qXhcw604PiuH41l2VWSswq7196seQUc1I65Us1bLUSVLP6tO+nkielXKxWPhcnSjF/ztR5i7TwgYjjFjtFnwjZmw8ZqLZaq2xT3S3XKm8OuNvqauSrdDPJLTvRrmSzSrHPCkU7Ot3KXmqquXyPhdwXI7PsOzyZFlFImyKy0V1xqIqyKWelmtsNLDTugfPFJz5pRQq9Zu1VzlevP08k6t84VcYzO25HT7I2HmuYXPIbGuOtvFxloKeqttCszZ1ZSso6WCnaqzxwyOc+F6vWGNr1cxqMOrLwkY1WVF2vF02jntfkN4vFkv8APfKia3eEx19qc/wWWOJtGlMxOh6RujSHs1bG1Ua16ve/Z8E0Late5HHdLHn+ausdHLXz23FZbjE20UEtZKskzmsjiZPOiOdIrGVE00cXaL2bWcmdNPAAAAAAAAAJVkf3p9ee7/Mv1HHCqgAAAAAAlWR/en157v8AMv1HHDv7S0djm0K+jvzr9ecav1FQ1Vp+lrMlK6aottSieEUNRFVwT09RA9Wsd0yROVrmI5itVXc9Ex7g4xjFbXb6exbY2HBd7PkdVk9vyGaqoKy6R1dTRLSVXbS1NJIyrSWNzubqhkj2/URjmNY1qdReBzXUGPU2L2nYOwLZb0xepw64Mp7jSOkutqmqZql0NRJLTPe1ySVEv9SF0T3NXk9XobNFwr4DHS3qlffskl+nr1jN+q5Hz06O8JscdEylRvKFERj0t8KypyVVV0nQsaK1G4a58Fus7zZa/HLplGWz2yrpsvoqanWppGpQU+RVENTWRwubTo5yRzw9pCsqyOasj0esrehrc9j+mr5HxAP29lNbTVsdlw+kxS0VrqtZK66u7R01RW10McENNBK17nsjbA1yK2ad39NHpE2wgAAAAAAAAAEq4Tvusab93+Pfp0BVQSrTf2i7294FH+1bCVUAAAAAAAAAAAAEq4lvs6tHvAwT91WsqoAAAAAAAPNXD1u3F8G0FrTCspw3atFesfw+zWu403kryeTsKqCiijlj62UDmO6XscnNqq1eXNFVPSUDzltdfhzavynyru4ectrr8ObV+U+Vd3Dzltdfhzavynyru4ectrr8ObV+U+Vd3Dzltdfhzavynyru4ectrr8ObV+U+Vd3Dzltdfhzavynyru4ectrr8ObV+U+Vd3Dzltdfhzavynyru4ectrr8ObV+U+Vd3Dzltdfhzavynyru4ectrr8ObV+U+Vd3HUufFZqWy0zKy82/ZVBTyVEFIyWp1blETHTzyshhiRzreiK+SWSONjf7ue9rU5qqIdvzltdfhzavynyru4ectrr8ObV+U+Vd3Dzltdfhzavynyru4ectrr8ObV+U+Vd3Dzltdfhzavynyru4ectrr8ObV+U+Vd3Dzltdfhzavynyru4ectrr8ObV+U+Vd3Dzltdfhzavynyru4ectrr8ObV+U+Vd3Dzltdfhzavynyru4ectrr8ObV+U+Vd3Dzltdfhzavynyru41+yZrQ7K4ksSvuNY3msFtsmD5PSV1Ze8Nu9lgjnqa+xOgibJX00LZHvbS1DkaxXLyicq8i6gAAAAAAim1Miiwbfuv8ANbvj+V1tlhw/KrXNU2LGLleuwqp62xSQxysoYJnx9bKWoVquRGr2Tk58/QZbzltdfhzavynyru4ectrr8ObV+U+Vd3Dzltdfhzavynyru4ectrr8ObV+U+Vd3Dzltdfhzavynyru4ectrr8ObV+U+Vd3Dzltdfhzavynyru4ectrr8ObV+U+Vd3Dzltdfhzavynyru4ectrr8ObV+U+Vd3Dzltdfhzavynyru4ectrr8ObV+U+Vd3Dzltdfhzavynyru4ectrr8ObV+U+Vd3GCg40dB1UEVVTV+cywz0dTcYpGa3yRzZKSne1lRO1UoOSxRPexr3p9VivajlRVQy9HxRauuNHBcLfZtn1VLVRtmgnh1VlD45Y3Jza9rkt/JzVRUVFT0KinN5y2uvw5tX5T5V3cPOW11+HNq/KfKu7h5y2uvw5tX5T5V3cPOW11+HNq/KfKu7h5y2uvw5tX5T5V3cPOW11+HNq/KfKu7h5y2uvw5tX5T5V3cPOW11+HNq/KfKu7h5y2uvw5tX5T5V3cPOW11+HNq/KfKu7h5y2uvw5tX5T5V3cdrhktN1sHDbqixX22VduuVuwexUlZR1cLoZ6aeOghbJFJG5Ecx7XIrVaqIqKiopSwSrTf2i7294FH+1bCVUAAAAAAAAAAAAEq4lvs6tHvAwT91WsqoAAAAAAAAAAAAAB564ssHye7Y5bb3QbjzCy0cmaYTTNtFDS2h9JHI/JLdG2oa6ehkn7RjnNlaiyrH1xtRzHMVzHWrELBdsaszbXes3veWVLZHPW43iGijqHIv9mK2jp4IuSf6co+f+6qZsAAAAAAAAAAAAAAAAAAAAHgzZmEyR8Z9o0RR5HYafCM9tN5ulyopblDHVU9PWVtuqbnbY6dfS5tZNQtXl/mc241zm+iI95Na1jUYxqNa1OSIickRP9j+gAAAAAAlWm/tF3t7wKP8AathPPus9S0+a7P23fKvhn0znEEezq+GW/ZVWIy607Gw0iqyKNbVUo5rEXqYizs5uc5OTP8y8SbQ37kGf01JTbvudqt953RfdcMoqWx2p7KO1U1JU1Uc0bpaZ71q2rD2aPe50XR09UT3I5z9ayjif3DPpCivtu2PlDctx/BL7frm7HrLj8cL5aSvqKKluFyluj0Z2Ej6R3OmoIUlVyy8lRFiYZzE8uumXcZWOVlzprbE5mUSyN8EoIYHKs2B0E7+0kY1JJ1R8rka6Vz3NYjWIqNa1qe5QAAAAAAAAAASriW+zq0e8DBP3VayqgAAAAAAAAAAAAAEq4lvs6tHvAwT91WsqoAAAAAAAAAAAAAAAAAAAAB5IzHE8qSozHhti17DX5Bsq43jLLVmq1VO2GjpPDIVSsnRzkqG1dv8ADKWKnYyN7XJDCqPanX0+twAAAAAACVab+0Xe3vAo/wBq2EyF94ceHnKL3VZLkuhtd3a710vb1VwrsXoZ6meT/nfK+JXOd6E9KqqmzRYBgcFRFVw4TYY54brLfYpW22FHsuUrHMkrGqjeaTvY97XSp9dUc5FVUVTEXDR+lrt9GrdNQYTWfQyTtt3hGP0kngSTPc+ZIeqNez63uc53Ty6lcqrzVVMnb9b67tNzgvVqwLHKK4UrkfBV09rgjmiclMylRWva1HNVKaOOFFRf/tsaz/KiIbGAAAAAAAAAACVcS32dWj3gYJ+6rWVUAAAAAAAAAAAAAAlXEt9nVo94GCfuq1lVAAAAAAAAAAAAAAAAAAAAAJVffvT4R7v8p/UbEVUAAAAAAAilNYN+4NsDYt3wrCNf5BZczyCmvtNNdMxrbXVQdFnt1C+J8MdrqWf56Bz0ckvpa9OaIqKZbxj4p/U3qr5l3HuIeMfFP6m9VfMu49xDxj4p/U3qr5l3HuIeMfFP6m9VfMu49xDxj4p/U3qr5l3HuIeMfFP6m9VfMu49xDxj4p/U3qr5l3HuIeMfFP6m9VfMu49xDxj4p/U3qr5l3HuIeMfFP6m9VfMu49xDxj4p/U3qr5l3HuIeMfFP6m9VfMu49xDxj4p/U3qr5l3HuI1/EdscSWZre0tWlNaRfQN4qLLU9vsivb1Two1XOZ02NebPrpyVeS/39CGweMfFP6m9VfMu49xDxj4p/U3qr5l3HuIeMfFP6m9VfMu49xDxj4p/U3qr5l3HuIeMfFP6m9VfMu49xDxj4p/U3qr5l3HuIeMfFP6m9VfMu49xDxj4p/U3qr5l3HuIeMfFP6m9VfMu49xDxj4p/U3qr5l3HuIeMfFP6m9VfMu49xDxj4p/U3qr5l3HuI1/NbJxJbKobPjV915rWyW2DKMdvdZXUmd19dPHBbrvSV8jY4HWeFsj3tpVYiLKxOb0VV9BdQAAAAAAAAAAAAACVcS32dWj3gYJ+6rWVUAAAAAAAAAAAAAAAAAAAAAlV9+9PhHu/wAq/UbEVUAAAAAAAAAAAAAGJynGbbmFiqscu890hpKvo7R9sutVbalOh7Xp0VNLJHNH6Wpz6HpzTm1ebVVFhfDPqLFLFesyyagu2aSVVszi9U0EVZm15q6V7ERI+c1NPVPhnfycv15WPf1I13Pqa1U9FAAAAAAAAAAAAAAAAAAAAAlXEt9nVo94GCfuq1lVAAAAAAAAAAAAAAAAAAAAAJVfvvT4P7v8q/UbCVUAAAAAAAAAAAAAAlXD56aDPH/82wL/AP8AxUq3/sVUAAAAAAAAAAAAAAAAAAAAEq4lvs6tHvAwT91WsqoAAAAAAAAAAAAAAAAAAAABKr996fBvd/lX6jYSqgAAAAAAAAAAAAAEq4ePTZM0f/zbAyX/AOLhK3/sVUAAAAAAAAAAAAAAAAAAAAEq4lvs6tHvAwT91WsqoAAAAAAAAAAAAAAAAAAAABKr996fBvd/lf6jYSqgAAAAAAAAAAAAAEq4dPTjOWv/AObYGV//ABd6lv8A2KqAAAAAAAAAAAAAAAAAAAACVcS32dWj3gYJ+6rWVUAAAAAAAAAAAAAAAAAAAAAlV/8AvTYL7v8AK/1GwFVAAAAAAAAAAAAAAJVw4enDslf/AM2wMx/+L9Wt/wCxVQAAAAAAAAAAAAAAAAAAAASriW+zq0e8DBP3VayqgAAAAAAAAAAAAAAAAAAAAEqv/wB6fBfd/ln6jYCqgAAAAAAAAAAAAAEq4bPTgV9f/wA2wM3/APjJbi3/ALFVAAAAAAAAAAAAAAAAAAAABKuJb7OrR7wME/dVrKqAAAAAAAAAAAAAAAAAAAAASq//AHp8E93+WfqNgKqAAAAAAAAAAAAAASrho9OuLq7/AJ89zh//AL5Rc1KqAAAAAAAAAAAAAAAAAAAACVcS32dWj3gYJ+6rWVUAAAAAAAAAAAAAAAAAAAAAlV/+9Pgfu/y39Rx8qoAAAAAAAAAAAAABKuGb06wqnf8APmWYv/8AfI7iv/cqoAAAAAAAAAAAAAAAAAAAAJVxLfZ1aPeBgn7qtZVQAAAAAAAAAAAAAAAAAAAACVZB96fA/d/lv6jj5VQAAAAAAAAAAAAACVcMnp1R1f8APlGUv/8Ae/16/wDcqoAAAAAAAAAAAAAAAAAAAAJVxLfZ1aPeBgn7qtZVQAAAAAAAAAAAAAAAAAAAACVZB96fAvd/l36jj5VQAAAAAAAAAAAAACVcMXp0/Su/577kT/8A3vVav/cqoAAAAAAAAAAAAAAAAAAAAJVxLfZ1aPeBgn7qtZVQAAAAAAAAAAAAAAAAAAAACVZB96fAvd/l36jjxVQAAAAAAAAAAAAACVcMHp0va3f89zvT/wD3utUv/cqoAAAAAAAAAAAAAAAAAAAAJVxLfZ1aPeBgn7qtZVQAAAAAAAAAAAAAAAAAAAACVZD96fAfd/l36jjxVQAAAAAAAAAAAAACVcLvp0fYHf8APUXN/wD73CoX/uVUAAAAAAAAAAAAAAAAAAAAEN3WzNtp5hHpDBq+x2V9hisGd190u9JLVpI+nu/hFDSwwRyxK5HT2t6TSdf1GOYiNV0iK2g6jzup2RgVFlNfbIrfXLU11trqeGZZoW1dFVzUk6wyKidpEstO9zH8k6mK1f8AU3EAAAAAAAAAAAAAAAAAAAAEqyH70+Ae7/L/ANRx4qoAAAAAAAAAAAAABKuFv06HxZ3/ADsq3/8AvVzL/wByqgAAAAAAAAAAAAAAAAAAAA8ff4gd1uTKTD7PrXHVuGwprrbU8KgutVa5aez1F1o6OSmkqaVzXpHV1FVTQLG5eSsWeRqdUPNPSeorrhd81hjF211bY7djdTbIH26iZB2PgkXSn9B0f92PYvNj2r6Uc1yL6UU24AAAAAAAAAAAAAAAAAAAAEqyH70+Ae7/AC/9Rx4qoAAAAAAAAAAAAABKuFn08P8Ahjv+eie//wB5pF/7lVAAAAAAAAAAAAAAPOukMQ21srS+A7GvvFTsqC5ZVi9qvdZFSWvF2wRz1NJHNI2NrrQ5yMRz1REVzl5cuar/AHN18jexfax2r8NxXuYeRvYvtY7V+G4r3MPI3sX2sdq/DcV7mHkb2L7WO1fhuK9zDyN7F9rHavw3Fe5h5G9i+1jtX4bivcw8jexfax2r8NxXuYeRvYvtY7V+G4r3MPI3sX2sdq/DcV7mHkb2L7WO1fhuK9zDyN7F9rHavw3Fe5h5G9i+1jtX4bivcxqN34Qpb9d7hfrvxI7UqbhdKizVNVUOp8cR732qrSrt6JytP1GRVCdqjG8mOc5/Wjut3PK4vw15FhlLW0OMcT+1KGmuFxqrrPCyixhzFqqmRZZ3ta6zqjOuRz3q1vJvU9zuXNyquZ8jexfax2r8NxXuYeRvYvtY7V+G4r3MPI3sX2sdq/DcV7mHkb2L7WO1fhuK9zDyN7F9rHavw3Fe5h5G9i+1jtX4bivcw8jexfax2r8NxXuYeRvYvtY7V+G4r3MPI3sX2sdq/DcV7mHkb2L7WO1fhuK9zDyN7F9rHavw3Fe5h5G9i+1jtX4bivcxibBTbAwbfuNYVd9z5XmdlyDD8huk1NfaGzx9hVUVbZ44ZIn0NDTP/wAlfUI5HK5q82ryRU5lrAAAAAAAAAAAAAAJVkX3p9f+7/MP1HHSqgAAAAAAAAAAAAAEq4V/Tw74E7/ns8b/AP3VV/7lVAAAAAAAAAAAAAAJVwnfdY037v8AHv06AqoAAAAAAAAAAAAJVkf3p9ee7/Mv1HHCqgAAAAAAAAAAAAAEqyL70+v/AHf5h+o46VUAAAAAAAAAAAAAAlXCp6eG/XDv+fHaN/8A7xov/cqoAAAAAAAAAAAAABKuE77rGm/d/j36dAVUAAHQv1fNa7FcbnTtY6WkpJp2I9FVquYxXIi8uS8uaf7nnrT3FVf854XYdv5PjNugzVWUND9DUb5GUtTdLgymdbY41cr3sjnSuo1X0vVnW9OblYp2da8V1yynWOC3mXWOQ5hmeQ4bSZfebVh9NTMit1NP1NZIq19XE3lJJHM2OJsskruxkVGqjVU2Ou4qMLrI6OXWeH5jsxlRjkOWVPirQwPdQ2yfr8HkmbVzQOWaXsp0ZSxo+pVYJEWJFREXVJOMFLBnWybdk2v8gq8Qwm7WKndkFroI44rZQ3G30M7Z69lTURzyOSWqlVzaaB744o0640VWq/ctpcSdt1K69XG/6o2FV4xjT6Vl4yekoKRlvpO2VidbWz1MVTVMYkrFe+mhman1m81cx7W4698WuI2LIsntFTr7N5bVheQ0ON5BkUVLR/R1vqavwXsXr1VKTyx86yJHdjDI5nJXPa1qtc7+wcTNrprnd8dbYr5lWQpmNxxi0WOy2yCmqqhKOmhnnf2lTW9gscbJkV1RLJTo5XNYkSOVqP8AzUbxzXP8lsGu9UY4zGMhuVmqMgvM2cWufrsNLFVJTNhfQQyxuqZ5ZUkRitqGRdnGszZJWrG2TH3XiTuul6rMbBxAUdHXVOKY/DllPd8Wt8sMN1tclT4NJ00c80joJ4ZVY1zO3lR7Hse1yK5Y28macVs+P2G8pbdKZ9Jklkx2bIrvbXwW6ZcepV7RKaavWKuVjkl7GZ6QUz5qjs4XqsbVViO/eM8UctwwbELimtsmzDJblg9qzLI6TEqam7Gzw1dOj2q7wyqi6u0eyo7KCJ00ythcqt9LVdsGN8SuJZxsChwPX+LZNk0VZYrZkr77QxUsdsprbX9p4NPI6eeOXm7sXf02ROk//KvJ3TXAAACVZH96fXnu/wAy/UccKqAAAAAAAAAAAAAASrIvvT6+93+Y/qOOlVAAAAAAAAAAAAABoW3M5v8Ah9HjtpxGjt81/wAwvkdgtstyV6UVLItPUVL5p0YqOc1sNLL0sRzVfIsbOpvVzTVeHJMgwSkq+HXKai3XKt1vZ7R4LeLfC+CK4W+obPHA6SF73rBUNdRzI9iSPTpWN6KiPRqWcAAAAAAAAAAAAAAlXCd91jTfu/x79OgKqAADoX6gmuliuNsp3MbLV0k0DFeqo1HPYrUVeXNeXNf9jzTq7hOzPCr1qGa65BY32bD8WtVLlFBSuld4ffLXSTU9DUQucxvVEiVk7nK5GPVaak9Co1UbqOM8EuQYdbsMrrprPTm0bjbsCtmI3i25gjkpqSroXSOirKCqfQVL+h7aiVkkSwxq/ohd1p0q1aVY9M7g1Hf6rJ9Q2bVtVPkeMW2y3a2PbVY/a7XW0DqlYamhggiqlfA5KyRH0znRrzhaqS/1HI3H7A4atk5lgO/McW/41Jdtr1FrqLdUp4RTU7H09rt9LM6aPpldCjpaOZzWNdNyY5nNyrz5abxD8IO1NzVmwoZ6TBMjkyOZ0uLZDlN5uEsuLU3g9Ki0VFa0p5Kamc+ak+vWQyskckvU+OVWIx285vw3Z5lGtd1YhSXOwxV+yc3osmtjpKibsYKaKG0seydyRdTZOdvn5I1rkVHR81Tm5G8FJw77QxPYdVt3FqjFrneqfM8ivFJaa+4VFJTVdrutJRwujkqWU8rqeeOWhikTphla5qKzmiv62bNXa53lHltj3dbqjBp85htVTYb1YHTVdNaa22yVKT08Udd2cszJ6Z3V/X8GVs/XIiww9TVj1XY/DjtLcFjz7JsxuGL23M8nx2mxayWuhrqmotdooY6xtTIslW+BktRLNI1HOelPGjUjjYjXdLpH7DsnUu4KbNc6yvTkuI1bdmY5TWW6x5HXVNKtpq6Vk8UFZTpBTzeFNdFVOR8D1h5OgYrZeUjkbM4ODK+446wXhdWaY2fcPEGxYvdKPOI3pFbblbKZIWVVBUeA1L5IJWuckkLo4nKsMTkenU5qWrUmmrxrjY+TZPP4sQ2q7YrjFio6Sw0DrfBDNbluCzrHSKr208C+GR9mxJZFREcir6EV1eAAAJVkf3p9ee7/ADL9RxwqoAAAAAAAAAAAAABKsj+9Pr33f5j+o44VUAAAAAAAAAAAAAEu4k6qwQamuNLeMahyGuuNRTUFgtckkkTqm8yytZRIyWJUkhVsyte6aNUdGxj5EVOhVJl/h7XyG9aEt7r3RyMzdYaKtyatqqqaqq7s+qo4qikr5Z5ldJL2tLLCiqqq1j2Sxt5JHyT08AAAAAAAAAAAAAASrhO+6xpv3f49+nQFVAAAAAAAAAAAABKsj+9Prz3f5l+o44VUAAAAAAAAAAAAAA8y5VvrB6ficwusksWxVjt2F5bQzIzW+RPe6R9wsKtdExtCrpo07F/OWNHRtVY0c5Fkj6vSlJUx1tLDWQtlbHPG2ViTQvieiOTmiOY9EcxfT6WuRFRfQqIpzAAAAAAAhVptOydlbJ2nDDv3NcVtuK5RSWS222yW+xOgjgdYrXWOc51ZbqiZz3TVsyqqycuXSiInI2DyN7F9rHavw3Fe5h5G9i+1jtX4bivcw8jexfax2r8NxXuYeRvYvtY7V+G4r3MPI3sX2sdq/DcV7mHkb2L7WO1fhuK9zDyN7F9rHavw3Fe5h5G9i+1jtX4bivcw8jexfax2r8NxXuYeRvYvtY7V+G4r3MPI3sX2sdq/DcV7mHkb2L7WO1fhuK9zGGvHDXkWQXuxZFeOJ/alVX41UTVVqkfRYz0008sLoXyoxLP0Of2UkjEc5FVqSPRqp1LzxWG8Icuv5aCfD+JHalufbMfocWp1ZT44/wD+mUfV4LA/rtK9p2fXJ0vf1PTrf9b6zue3eRvYvtY7V+G4r3MPI3sX2sdq/DcV7mHkb2L7WO1fhuK9zDyN7F9rHavw3Fe5h5G9i+1jtX4bivcw8jexfax2r8NxXuYeRvYvtY7V+G4r3MPI3sX2sdq/DcV7mHkb2L7WO1fhuK9zDyN7F9rHavw3Fe5h5G9i+1jtX4bivcw8jexfax2r8NxXuY1TZGO7R1fabJltFxJ7Avf/AOuGLWuot10tuO+C1VLXXyioqiN609rilTnDUyclZI1yO5Lz9B6AAAAAAAAB5f4ZNT55ceG3VFwo+JvZVrp6rB7FNFQ0lBjboKVjqCFWwxrNaXyqxqKjUWR738kTqc5earS/I3sX2sdq/DcV7mHkb2L7WO1fhuK9zDyN7F9rHavw3Fe5h5G9i+1jtX4bivcw8jexfax2r8NxXuYeRvYvtY7V+G4r3MPI3sX2sdq/DcV7mHkb2L7WO1fhuK9zDyN7F9rHavw3Fe5h5G9i+1jtX4bivcw8jexfax2r8NxXuYeRvYvtY7V+G4r3MPI3sX2sdq/DcV7mHkb2L7WO1fhuK9zDyN7F9rHavw3Fe5h5G9i+1jtX4bivcw8jexfax2r8NxXuYeRvYvtY7V+G4r3MPI3sX2sdq/DcV7mHkb2L7WO1fhuK9zDyN7F9rHavw3Fe5h5G9i+1jtX4bivcw8jexfax2r8NxXuYeRvYvtY7V+G4r3MPI3sX2sdq/DcV7mHkb2L7WO1fhuK9zGrWjDshxHikwtuQbWynNlq8Ay1YXX2mtcS0fRcce6ki8Ao6ZF6+pvV2nXy7NvT083dV+AAAAAAAJpxD3zJrBraKbEMkq8fuVxyjF7IlypIKeaemgr77Q0dQ6NtTHLCr+xqJURXxuRFVF5eg6vkb2L7WO1fhuK9zDyN7F9rHavw3Fe5h5G9i+1jtX4bivcw8jexfax2r8NxXuYeRvYvtY7V+G4r3MPI3sX2sdq/DcV7mHkb2L7WO1fhuK9zDyN7F9rHavw3Fe5h5G9i+1jtX4bivcw8jexfax2r8NxXuYeRvYvtY7V+G4r3MPI3sX2sdq/DcV7mHkb2L7WO1fhuK9zGJqeHLKKvKrdmtRxR7VferVb6210dT4FjCdlS1clNJUR9CWfod1PoqZeaork7Pk1URzkXLeRvYvtY7V+G4r3MPI3sX2sdq/DcV7mHkb2L7WO1fhuK9zDyN7F9rHavw3Fe5h5G9i+1jtX4bivcw8jexfax2r8NxXuYeRvYvtY7V+G4r3MPI3sX2sdq/DcV7mHkb2L7WO1fhuK9zDyN7F9rHavw3Fe5h5G9i+1jtX4bivcw8jexfax2r8NxXuYeRvYvtY7V+G4r3MfMDjM43OMLh24k8w05hXEFda2y4/wDR/g090x6xSVT+3oKeof1ujoY2LyfM5E5MT6qJz5rzVfsoSrTf2i7294FH+1bCVUAAAAAAAAAAAAEq4lvs6tHvAwT91WsqoAAAAAAAIRpPLfEDgXwLO/o/w/xb1Na7v4L2vZdv4PZ45ez6+l3R1dHLq6V5c+fJf7GqZFxxUNg4ecQ3YuvFmvGU3l1jfjP0wjX0c8Mk7atzqjsV6mRJTvcjuzRH9cSIqdo1VsMW+9UTbA8mMWTyOvvhz7UnK21fgTrgyDwh9Eld2Xgq1TYf6i06S9qjUVVb6FNC2Nxn6mw7D75k+O1cuQTWKpoWyQyU1XQU1XSzXants9XSVctOsVZFBJUorn06yt5oxqub1tU2qHie0zUWRl7p75eplfeZsfS2R4tdX3f6RigSolp/oxKbwxHMgVJXf0eSMVHKqIqKYu58YvDtaaC3XOfOquoprnYPGmJ9Dj9zrOytKSOifWTpBTvWnijkY5kjpkZ2TuSSdCuRFy1bxD4BZLrktBfbrC5LJeaOyUsFnpa+619dUVFuhrmsZSQUqvkf2MrpOVMtQ1IWLI5zFR7I8T5wVyzrJKfGeHzFLNmqpYKPJK+6Xa/SWe3UtLWPkbSQ9bKWpndUydjO5YlhajGxL1va5Wsd+8X4qta3mixSlv8ABerHlGVVtztMWNpaqm41lPcLbUMp7hDI6ijlYjYZZGKsquRixu7TmjEcrcY7jI1HPntDjFsuaS2F1lv96ueS1UNTRUNLDa5aaJz4JJoGx1sL3TTIk8Ejo0WBURX9Scs5NxW6NprG+/VeTXamay9U2OuoJ8YusV0S41MPb00H0e6mSr6po/rRr2XKTmiNVyqiGoycVOS3m80WM4Hq+3112uee3PCaNl6v09rh6aO0uuLqqVUoppYnOYxzOxWJVa7lzcnp5UbVO07nnNzyjDsvxWHG8vw2rgp7rQUtxW4Uj4aiPtaappqlYoXSxSM5p9eKNzXxyNVqo1HO0y/8R2UyXfH7RrvXNova5Zl90xSy1V1yOW3U8/0dR1M1XUvdHR1DmsSaiqYY0a1/X0tfza1yHSo+K91ryalxLYuIWnH6qmyi4Y3f7hT5F4Va7a2lx997WqZUyU8KytSBrGSNeyFY3K5V6kaivz9k33kddbrLm191fPY8JyS/UtmtdfWXB7bkkVW9IKKrqaB0DfB456l8MbWLK6REqInPaxVexllAAAAAJVkf3p9ee7/Mv1HHCqgAAAAAAEq4lvs6tHvAwT91WsqoAAAAAAAAAAAAB8Af8Uf79mzf+i/o9Eff4lWm/tF3t7wKP9q2EqoAAAABpW5Nlwah1xds+ks013monU1LRW+KVsTqytqqiOmpYe0cipG1888TVfyd0oqu6Xculdcs1TxNWHJcfXMocGyyw3eR9Nd2Y7bp7XVWB6x9cdQj6uslbXwI9qxPRrIJfrskaxyI6NOtauJO3Veb41h181PsLGYMzra2gx68Xu30tPTXCWmilmVFgSpdWU3XFDJIxKmnhcqJ6UavoM1ordlBvzCaTYdgwXKbDYLnBFU2upvrKOJ1fG/q6nRxwVEr2oxzVavatZ1c0VnW1eoo4AAAABKuJb7OrR7wME/dVrKqAAAAAAACAalxW4Z1wD4ZhFomp4a7IdQW61UslS5zYmSz2WOJjnq1HKjUc9FVURV5c+SL/Yll+4IdjXKLJKGlyfGvo2ssFuistC+SdjKO8v8Aotl0nerYl5xyMtESxuRFd11FRzazrVV220cKWT2vcU2Q1TbVdMafnlRnUNbW5ff+1pny9Uvg8dkjkZb+2ZUPd01bnuTs15Ogc70nQdw377l0TbeHZa3XsWPYmljpbTdPCq2SuusVvvNHVNmnb2LWUS+C0jkWFnhKPle3+rG1iq7JZrw9btqMyyfIMRyK2vs2R5yuR1lmhy6645LW0aWGloIkkuFvhdURuiqad8vYM5xyNViueitRqathfBntDGsLvOM12RYxUVFbqC9a7gnZVVStfXVVwrJ4ah/XE57YljqI+tVc97X9aJ2iIj3bBbuGPamJ7IbtvH6nFLpdbXfKW4UNprLlU0lPV0/ivS2eobLUspZXQSNmp1lZ0xSo5iI13Qr+bNxt2u9+YZm1RtTH6bXmQXzLrDQ0GXWeaurbLQx19JJM6GqoqhsFZI5vZ1MkL2SRIr+zikR0f1olxeAcM+XYlsDX2dXfI7Pcau1szO45ZPTtmplqbpfaijn/AODiXr6YIvB3xp1yI9GNjX6yq7lNa3gv3HkeH49qq+ZBh9DjmC4Xe8QsV2oaysfX13b1FFJR1NTB2UaU/JlBE2WOKd/1nPVr+StRmyWnhRz+W72jK7hRY3aLpTZ5j2QVzHZnfskqJrbbIKpvS6vufN75FkrJOzhZDCxjefVJIqp05Sq4fdwY/mtLn+JRYdd6u37Svebw2+43mqoI5qGusr7e2N08dHOrJmvkV6tSNzVRqJ1c19FR1DrvK7DkmabO2G+0w5TnNTSdvbrPUyVNDbaKjiWGlgZPLFE+oevVLK+VYo05y9CM5Ro98ksvDguX0mA6+zfELPc8e1XnOQVlzob/AG91RSXi3VdLXrQS07JInwzuatfSueiryjkhlTn1Mai7htHhN1znkusMUodeYbS69w7Ia283XHGULaWkqGy2+rij7KnhjSNzkqpoZHI7pRUa5VVy/VXB3fW+07Zg1u4fbvUPyeyz5bZ249kDHVD62lx6iq4a6Zt0f2SRRzwx0y0sMySudUK+F7mo9JVX0sAAAAASrI/vT6893+ZfqOOFVAAAAAAAJVxLfZ1aPeBgn7qtZVQAAAAS3iG2DmWvMUsFRgclliu+QZbZMaZPd6GWspqdldVsgdKsMU0Lnq1H9SN7RvPl/c0TKOILNdCZVcrRvC6Y5l1sgwu55n4Rh9imttZb4bfNBHKyopamuqEeyZKpvYy9rGnXBKxWu5o5uzVXEuyF9vtVJpHZFfktwtkt98W6aG1rcKe1scjG1kqurmwMbI9elkPa+EOVr07JOh3Lo3ji3wqoscF01ni+T54+fFly6f6Fo4VbarcqvZHLVpUTQu63SQzt8Gi7SoVaeZEj5t9P509xPUOa6/tN3yy0TxZA3WNo2PeG26nRtH2FY2o5xU/aSq/rR9HN9V68ka6P66qq8uwziuxm6UNtrsJ1pn+YrU4zb8tuUFit9LNNZqCti7WmSoZJUMWWd7EkVKel7eVUjXk1eqPr72kt05TtHO9o41ecErLRbMLyCK2Wqvk8HalTA+gpahEkaypkk7VyzrKi9mxqRSQtdylbIxthAAAAB8Af8Uf79mzf+i/o9Eff4lWm/tF3t7wKP9q2EqoAAAABpe5Naw7d1veMCfeJLTPW+D1NDcWQpMtFXU08dTSTrGqt7Rsc8MT1Z1N6karepvPmmo22g4p8mveOQ5hXYJhdntKuqrxU4zcKi7VV8mbH0Mp2xVlHFHQ0znudI/69RLyYyNj2KqzJGdf8Iu0LDsPWWeZLbMCqb5hN4lq8iy6a+XG65Blcclsnou1dPVU6Oo2sV0T0oUklh+uvQ+HskSb0Jw767vepNF4LrHJKqhqbpjFipLZVzUL3vp3yxRo1yxue1rlbzT0KrUX/AMkKIAAAAASriW+zq0e8DBP3VayqgAAAAAAAlXCd91jTfu/x79OgKqAAAAAAAAAAAACVZH96fXnu/wAy/UccKqAAAAAAASriW+zq0e8DBP3VayqgAAAAlvENqGTdeKWDE30tlrKCjy2yXm6Ud3Z2lNV0FLVslqIFZ0PbIr42uajHJ0u58nKiekwmz+GXCKzROx9XaQwDCMJuWc2Oe2rJQWqG2080yxvbE6oWmi6nNb2juS9LlTqdyT0qdrP9f7Vtu3PLLqKnxS7V9di6YvX2vI7jU2+FjYqmSopqqOeCnqHOVr55mvhWNvUjmqkjFbydO8O4aNvaKhe/Tt9xXIqzIMTisN/lyOee3xxXKKqrKmK5U7IIZ1kj7S5VaOpHOj+q2JEm581Mdj/DNvHA8aslnxarwW41NZqC2axvz7hcayBlvqKPwjor6XopnrWMXw2fnBJ4Mq9lHykb1u6c9rnR29NH0VK/XPiJeq674XjtgvP01c6ymhttztVD4K2qp0hpnurYHtVFWF60zv6KcpE7Vezo2qNe5zg2wtl3jIJbFW2nNbvR32lrKOeaOoSoZbKOjmifSvjVsbOqkV7HJUSKqSI1URW9S1QAAAAHwB/xR/v2bN/6L+j0R9/iVab+0Xe3vAo/2rYSqgAAAAAAAAAAAAlXEt9nVo94GCfuq1lVAAAAAAABKuE77rGm/d/j36dAVUAAAAAAAAAAAAEqyP70+vPd/mX6jjhVQAAAAAACVcS32dWj3gYJ+6rWVUAAAAAAAAAAAAA+AP8Aij/fs2b/ANF/R6I+/wAedcQwDK8q21vG4WLd+a4dTx5xRQuobJSWWWCR6YvY1WZy11vqJetUcjVRHozkxvJqL1K7dfI3sX2sdq/DcV7mHkb2L7WO1fhuK9zDyN7F9rHavw3Fe5h5G9i+1jtX4bivcw8jexfax2r8NxXuYeRvYvtY7V+G4r3MPI3sX2sdq/DcV7mHkb2L7WO1fhuK9zDyN7F9rHavw3Fe5h5G9i+1jtX4bivcw8jexfax2r8NxXuYeRvYvtY7V+G4r3MPI3sX2sdq/DcV7mHkb2L7WO1fhuK9zDyN7F9rHavw3Fe5h5G9i+1jtX4bivcw8jexfax2r8NxXuYeRvYvtY7V+G4r3MPI3sX2sdq/DcV7mHkb2L7WO1fhuK9zDyN7F9rHavw3Fe5h5G9i+1jtX4bivcw8jexfax2r8NxXuYeRvYvtY7V+G4r3MPI3sX2sdq/DcV7mHkb2L7WO1fhuK9zGgbr1rmeO4zj14u/EFn2UUkGf4Qklqu1FYI6Wo6smtrUV7qS2wTp0q5Hp0St+sxvV1N6mr6UAAAAAAAB541tkF3xP/D2xbKsfq/BbpZtNUNwoZ+za/sqiGyMfG/peitdyc1F5ORUXl6UVCG5dxX7pt/DVibLZlfZ7OhvU8OSXRbbS81tlI6F61PYOjWJqzxXGz80axEb4YqtX6qK6xU/G5iNRupmrG0uN+CSZfNhDXNyuB1+bcI2O5zvtCR9baJZ2OgSbtuvq5OWJGL1GvbI4o9w3HQNRuDA9eMsdlvEtircUvUV3p6yorKSpv1DSrBV0s8DWUk1RTVDnM6XTtaiv6pI3sbz2qv4rcisljvXjThWDY1fMczBcSusl+2HFbrBTuW3RV8UzbjNStmlWWOZjWRMpFf1o/qRrGq81SPjsyK94zTZNhelqG5wQ64qNj3bwrLEp2QUtNVT09TTUz2UkvhMnVAronKkTJG81csSojXbRT8T11q9iX3AsNxua/wB9umRUVtx2ivF2ioKCOndjtLdZ5XzQ0b5YGNZKqdDkqpHTPTkrI15Rafs7fO6qK37ZWGrq8KuVhxzAaqjt/ZUNbLZa25XSspq/pldG+Oo6mQsa1z0c3k1HNa1XKhU7Bddga331YNW5Nsu7ZzYs0xq63WiqLzQ2+Gut9dbqijbI1H0NPTRPglir2rydG57Xw/5ul/Jul8Qu6Ng2THdx3zCspq7DT65kx/H4Fo7fBVzuuFZNRVNVUoyWGVZFbSVtNHExGqnU6dXNe5Y+zxGdbpvWqsCtWfUO2ts5DQTZ3j9ouTMtwBltq0opZXpUQ0dM20Ucs6zNc1vU1kjkcxqMcxVd1Zq3bU2ndNC3nivfmrI7bAxcmpsPpqalfS0Vio3KtXRVUzoVqVuCwsqe1VsjWw1LGRtY5sUnb+nWPZIxskb0cxyI5rmrzRUX+yop+gAAAAAASrI/vT6893+ZfqOOFVAAAAAAAI/xWUVTcdS0lvo7tV2uoqs4wiGKupGxOnpXuyi2I2aNJmPiV7VVHIkjHs5onU1yc0Xt+RvYvtY7V+G4r3MPI3sX2sdq/DcV7mHkb2L7WO1fhuK9zDyN7F9rHavw3Fe5h5G9i+1jtX4bivcw8jexfax2r8NxXuYeRvYvtY7V+G4r3MPI3sX2sdq/DcV7mHkb2L7WO1fhuK9zDyN7F9rHavw3Fe5h5G9i+1jtX4bivcw8jexfax2r8NxXuYeRvYvtY7V+G4r3MPI3sX2sdq/DcV7mHkb2L7WO1fhuK9zDyN7F9rHavw3Fe5h5G9i+1jtX4bivcw8jexfax2r8NxXuYeRvYvtY7V+G4r3MPI3sX2sdq/DcV7mHkb2L7WO1fhuK9zDyN7F9rHavw3Fe5h5G9i+1jtX4bivcw8jexfax2r8NxXuYeRvYvtY7V+G4r3MPI3sX2sdq/DcV7mHkb2L7WO1fhuK9zHxI/wARm31eN8ZewrLeb5W5XWU/0T2l3u7II6up6rVSOTtG0ccECdKORidETfqsbz6nc3L/AKDCVab+0Xe3vAo/2rYTE3fe+fV13y9+rNPxZdj2A1i229Vb78tHX1tZFG2Wqp7XRtppUqpImSMb/Wmpmvm5xtXkivNgu/EdqGw5VS4bdsguMFzqZ7fSPX6AuLqajqa7p8Ep6upbAsFHPJ1x9MM745OUjFVqdbeeBtfFTgOW5dhWO6+p6++0OWZBX4/LdZaCtoKamlpbfW1T1hfUU7WVnJ9C+F6RP5Rud9ZeadK6xhfFNn14wzD9r5hqCyWjAswu1JaG3C3ZbLXV1ufV1S0lNNVU0lBBG2F1QsUb3MnerO1avS5EcqWTLs7THMkxTD6C2tuF2yqulijidOsTKaigjWSqq3uRjl6WJ2bGtRPrSzwtVWNc6RkbwTik2BkdgwDPsm1JjtqxHYV6hsdDNQZhNXXSCaZ0rIXPo32+GNzeuHm/oqHKxiueiORqoZLWnFNVbepcNo8B182uvl8pW3bIqZ92VlHjFtWWSNslRVJA7tKiZY3dhTJG10iNe5zo42LIVHWOet2HjLrrUWv6Kutvram0Xm3dv26UVwppFjnjZL0t7WPqTqjk6WK+N8blYxXKxNtAAAAAAAABKuJb7OrR7wME/dVrKqAAAAAAACI6CxW351wT64wi7zVENDkOrLPaqqSmc1srIp7TFE9zFcjkRyNeqoqoqc+XNF/sdK5cFupLnVZFWyXHJIp8msFpx2sfHWRfUhoHQKyaNFiVrZpG0lKyV3JUc2CNEa1U5m2WvQtqsecVGW2XYGa2+11l7lySoxeluMUVqmucsfRLM9WxJVOY9VWR1OtR4Osi9axKpqi8HuFvxd2BzbF2BJilK6iSzWL6Tp2UVlgpblBXxQQMZToszUkpoY0fVLPKyJHMZIzrcq5LIeFrFbxmdVsSz53mON5LUZDLkbLja5qJzoJpbXDbZYWR1NNNF2T4KeNfrMdI1/NWvai9JjrFwa6vx2x3LHqC/ZU+kuWEXHAHrPWwySR2ysq6ipe5r1h6nTMdUva171d9VretHu6nO70nClhUF4mymwZfldjyP6TpbrR3mjlo5KiglhtENpcyJk9NJA6OSlgb1tljk+uqvb0KjOniunCVg92x/J7FWZtnE02WWmw2mvulTdIquu/+k1U1VT1DZaiKTnK+WokWTrRzOSNaxkbU5G24TpunxbL59g5FnuT5tkr7atmprlfvAY3UVC6VJZIIYqGmp4WpJIyNz3rGsjuyjRXdLGomBy/QNPml7zm23S4yxYnsBtouVwbSVCR1tNd7fJCjXx9cT2OimgpqRjuaorFpl5I7tldFu2wNcWPZENggvlVXQNx3IKDI6VaR7Gq+ppJOuNj+prucar/mROSqn9nIT3OuHKK5wZpb8IvNRbLXtOspmZfapahraBtO7pZcKqlhbCrkrKqnZ2D+cjYlWTtnte9qtltoAAAAAABKsj+9Prz3f5l+o44VUAAAAAAAlXEt9nVo94GCfuq1nf3htK86qsFirsdxWiyC6ZFkluxqjpa26Pt9O2WskVjZJJmQTua1q/3RI3LyNOh4prbh16vuK73sdHit5tFZaKOnZjtVW5JBcJbmypdSQRdlRRVHhKrRzosKwf2WFWucsqIm40HELqS55vDrulySqS9z1SW9jJrPWw03h3gqVS0S1T4Up21aQOSR1MsiTNbz5sTkpoF644NL2nLqS1R3KpnxtLTe7tcsjW310dNTst9TS0/VTItNyuEUklTI1J6Z740WBeSu6uaUrIN4avxepyGhvWSuiq8Xnt9LcaWKgqZ5/CK5OdHBBFHG59TLL/ZscCSPVfRy5+gjmf8AHbheMVF/ZimI3fI4LJg11y/t5aOvtzXVFDVLTzW+btqT/hnteyRr3ScljkZ2TmdbkQ229bv23UbA2Dh+uNN2DI6XXjKJaqSry+agrrg+oo21SR0tO2gljV/JehvaTsaruXNzUVVTbpd34g/R9Lvq2Mq62x3Ky015t1MxrUqqtaljFpqVreaok8kkkcSNVeSSO5Kv91J/fOIXbtHfdh2qx6iwuqp9YW+jrL7UV+d1FH1vmt7ayRlOiWuRrmsTqYj5HxdXJHKjEVUbxxcYllrqi92qy4Jc6++c7JDitjZUNbcL9UXK2srmsfGremkZAx6rPK5z2RMY96r6EatOxHYV2uWZXLXeZ45R2XIaG10V5iZQ3F1dSVdLM3oldHK+GF/VFUxzRq1Y05sWCT0LK6OPeQAAAAAAAfAH/FH+/Zs3/ov6PRH3+JVpv7Rd7e8Cj/athNZdrXfOA3rPLbp2qwt9kz27SX6G7XqtqYq/HK+pjZHVPZSMppYrgxro2zxsfNT/AFnuicvSiPNI2jw1b7zzPX3SXNqK8WejyHGL1a57hlt1okip7bJRyVNLJaKWJLe+SaaConSpej1a6RGJGxEY6PYdZ8N2c4ZZ9K2+6XWxSya4yvJr7dVp55nNmp7jFdmQNg6ok6ntW4Q9aO6ERGycldyTqw+CcP8AvJNU4ToLPaPBaDE8ZvFvudyu1qv9ZXVtzioa9K+GnZTSUMDKfrnjgR8nbvVrGvRrVV6ObWtgWO5Um5Na7IpbbU11Fb4bxi9wSmhfK+kjuXgksdU5rEVezSe3QxOdy5MSoR7laxj3N1rhq4WsC0nheNPuuusE8oNqp5463JLZaIfC5nyPk6nJVuiZO7nG/pVV5Kqc0/saXpHhOy3h7seDXPWsuM0WS06y0WwKRtTOy35LRy1E0zahZexdJ4ZTOlVYZFjTmx8kDlSPs1jq+gLPdYbNlWa3e2VtslzvKa3IoKCthfBUU9IscNNS9rDIiPhkfBSxSujciOY6VWuRrkVEqIAAAAAAAAJVxLfZ1aPeBgn7qtZVQAAAAAAASrhO+6xpv3f49+nQFVAAAAAAAAAAAABKsj+9Prz3f5l+o44VUAAAAAAAlXEt9nVo94GCfuq1n94htOu3Zj2L4xNRWSuttty+03u7UV4j7Wnq6CmlV08Kxqx7ZHOavJGPRGr/AGVUQw2dcN+Prb8Bs2nMSxDDrZjOwrdmVyorfQMt8FQyCKSOVzI6eLpfO5FiRFcic0YiK5OSIam3hu2OmbttK3PHEwNmzpdnJcErKlbwsskbnrb/AAbskia1Kl71SoSfn2XS1IkcnWTm98F27MlwGz6luN6wWmsWE4Jf8Mx+5xVdXLV3BamajfR1FXAsDW0/JlBE2VkcsqI5XOarkVGN3Wv4et35JmOQ7YvUWDUGQzZVjWUWex0t6q6iid9GUs9LLTVFa6jje3tGTue2VlM7pcqNVjkarn9bcHDrxAbbbkN0uU+u6a55br2+4ZVQ01dWxQ219TVMmolbI6ne6s6WxsjllVtPz9L2RInKM3WrwLiExTau0Mt1tacArKHYH0a+irrxkFZT1FrlpqBtN2j6OOglZUIj060Z4RH1IiNVzOfNO5lmkajFeFm0ahwaOa81OB0lhqrdFIqMluk1mq6WsbH6V6WPndR9Kenpa6RP7NQ6tk4add5ltjOtx7J1thmU02YOs1Xj7r5j7Z7hQQwUEcT2yx1cCPpnK9vV0J9ZP/EjXIqJg8r4Sq2/bV2Xuu0XK02bO7tPZqzBsjiSSSqtUtDQ9hJDUNVqN8Gnc6SOaJquSWKT08nsjVm7Yfa81yPebs2y7H2WmTFsPjx6odTPnfRVdyrZoauqSklmjjdUQQsp6VEm6ETrmkZ/mjka2xAAAAAAAA+AP+KP9+zZv/Rf0eiPv8SrTf2i7294FH+1bCVUAAAAAAAAAAAAEq4lvs6tHvAwT91WsqoAAAAAAAJVwnfdY037v8e/ToCqgAAAAAAAAAAAAlWR/en157v8y/UccKqAAAAAAASriW+zq0e8DBP3VayqgAAAAAAAAAAAAHwB/wAUf79mzf8Aov6PRH3+JVpv7Rd7e8Cj/athKqAAAAAAAAAAAACVcS32dWj3gYJ+6rWVUAAAAAAAEL0fV5Jb+BvAK/Dabwi/02qLVNaoejr7SsbZ41hb08l585EanLl6eZFbfi2psY0xpDb+pvAH7Kye/YzGzIaefqu2TzVdXD9NQ3CoRyy1TexWtkmZKr0hdBzRrFib09nXGz94ZnjurG3rdV8oH7Uy3IrdV3WntNnZ9Ew2xbg2no6NJKR0faVHgzHPdO2dypFJ2aM5+iY652/uey6sxzCdY3u5pDasLyLMG3SyMsDKWsqUv9dH21a+81EaMt0aRtdJ4MqSolS1VlYiN6tt2rnWy9kYbu+ryzM5orNjdwwWmoMaoo6CWhp5K2Ky1k7vC2RLNP0zTSdDmzdHJ7v86dHR27zrfUtZrPij2pkuKWGmy3H8wyGosuVpSRRXi3VkFDSyUS0tY1O3jkbU9HZtY76z3dKI7rVq3jcFfkN31prbFMrpEjXO7/ZLLlkDmo1rqeSJ09XSvb/ZY5nQeDSM/ssc72/6ko0xq2iyrcu0couHD1qbJ6ej2nXdWUXyoT6coezhpHolPCttlRyRqqPZ/wAVH9Zzv8vLmuk6NWqyK8Yrie9rHT0+qajMswpsRjWoSegvmSJkFwlRLrG5iNYqIsjaOByuY+Wmke5VkdTMb6l0bzs2VbW1/b4nNsWM5ZGlpYnLsqRlZbKKtmpGIn9kZPUyyI30I1lQxqIjWoVsAAAAAAAAlWR/en157v8AMv1HHCqgAAAAAAEq4lvs6tHvAwT91WsqoAAAAAAAAAAAAB8Af8Uf79mzf+i/o9Eff4lWm/tF3t7wKP8AathNNtty3Vua77HvuC7Xlw9mGZFU41jtkZa6KooK+oo443STXSSaCSodHNNI5nTSyQKyFqclWRVcnfvPE7V2G4ZrabhgULqrC8uxLEp+xu6ujqJL023q6ZrlgRUbAtwVEaqc5Ei584+vk2X7D4xNi3nTu2r5rvHsXsl6xCw3OvpX+NkFVd7K+mquxRt0tUtJ10lS6NHzRxcp4XLE5j5Wc2OfRsg4or/jWT3Ohr9aUMuPYdc8fsGZ3inyFz3226XRIOTKOnWlRa2nhWspO0lc6B6pK7pic5jmmm2jjS2XkTcdfY+H+0yszGnyWawrPmqxda2OoSKq8J5ULuxbInV2Ss7VXPRrXtiaqyN4cn/xEsDsENqurLVYIrbJjuP5NdILtllPb7slNdWMlbHbqF0bluEsML+0kb1wpyVrWK9y9KZO/cSmzMguUbcexugxqyWnclDryev+lG1lVdI21iR1KLTPpUZBE+NzeT0mWRHI5ERERHuwFLsbdNl0Vc+Juq3NfLqthyq8RVmKVlqtLbVU2ulv9Tb1gjfDSR1bJUp42uZItQ7+q1FejmKrT0BtLMrxbMnwDX2N3BbfcMyvUjJq1ImSOp7fR076qp6Eka5ivk7OOD0p6GzvenJWIRrhz2Jleyb0yryjc22pbm3JshpHWiPBIIsadTUVzrIYYfpNLP0cuwgjRVSu61k5s6kf9QwfC3xD7J4lW4tjkWbz2R2NW5L3lV1ltMENbk0i1lRTtpaCOWDsfAo3QPZU1MTFd2iMijVjldInoLSWX3zJLHfbBlVwbcL7hN/q8ar69I2RuruybHLBUvZGiMZLJTT075Gsa1iSOf0tY3k1KKAAAAAACVcS32dWj3gYJ+6rWVUAAAAAAAEq4Tvusab93+Pfp0BtVn1LqrHsurdgWDWeKWzKLl2q1t7o7NTQ19T2jkdJ2lQxiSP6nIiu6nLzVEVT9XHVWr7xiSYDdtb4tW4wkzqlLLU2enkoO1dI6V0ng7mLH1LI9z1Xp5q5yu/uqqdW6aV05e7VarFedTYZX22xTSVNro6qw0ssFBNI/rkkgjdGrYnOf9ZXNRFVfSvpMtWYHg1xS7pcMMsVUl/np6m7JNboX/SE0CMbBJUc2/1XRpFEjHP5q1I2cuXSnLBy6J0hNmCbCm03g0mUpVtr0vjsepFuCVLVRWzeELH2naIqIqP6uack9Jmc7wq1bBxipxi7T1VM2V8NTTVlI5jamhq4JWzU9VCr2uYksU0ccjetrm9TERzXNVWrkrXYrHY3Vr7LZqG3uuVW+vrVpadkS1NS9Go6aTpROuRUa1Fe7mqo1PT6EMZV671/cMYmwivwbHqnHamodVTWia2QPopZ3VHhLpHQK3s3PWoVZlcqc1kXr/zek/GC4LasCt1dR2+rra6outyqbtca+ucx1TWVUzubnyKxrW/VajI2I1qI2OKNqJyahsgAAAAAAABKsj+9Prz3f5l+o44VUAAAAAAAlXEt9nVo94GCfuq1mF4tc+yfX2C4zXYvlN6x992zOzWaurrLaY7nXtoqiZWzJT0z6eo7SVW/5UbC93Plyav9icUG/Ns4BPO2mteWbEsmRZXYsUxavz22piNctwq4Kl9X2jGW6F7qOHsqRWy+B9TnTVCNdL2SNN1t/FNc5svgo7lr2ipsQfmj9eS32K/LLUR3yOBXScqRadqLSJUNkp0mWVJFc3rWFrF6iT5fxubKs7MY2/Hrqnpde3fDMjye2W1t6jkqL3BDVW2OikqXLS9VBM2KpfIsUb5mKk6Ir3OZ9WzZjxNSY1muS69t2DtuF6tt8x/HbM2W6LBBcay6QSTos8iQvWmiiZDI5zmtmcqN+qxXKjVje9uIniaxG5ZpCyw2rC/oPU98yJtPHc4bmsFypa1IYa6Bz6NEnjc1WKxkis5xyqskbJGLEbtj3EDsOs2FrnBb8iw3+3wZPbM7slLFA3w25W+kpZaeaB83T2cM7Jm1EK9bG9FQ1r15sd04On4++djyitTCMOv9xx+hxuvjp8O2DBe6WT6VuyW51LPVNpo2QVULnNkViJIxzXN5SNReo2fHOLPNKnMKfHcy0/a7PboM7drq7XKiyt1b4PdnUL6yJ8ET6OFZqZY+wR8j1he103JI3oxXH60Hxr4pvTO7fiFDR45BFkdoq73YnWzK4LrXsp4JY2rFdKOKNq22ofFNHK2NXyt9ErFej4+lfSgAAAAAAAB8Af8AFH+/Zs3/AKL+j0R9/iVab+0Xe3vAo/2rYTrZZw2WDJb1ktdbtg5pjNpzZY3ZVYLLVUkdBeXpGkMkj1lp5J6Z8sDWRSPpJoHOaxruaPTrXGZFwj4Ffcolv1DlmV2G3VVysF3q8ftU9JHbairs7ofAnua+nfM1rWU0Mbo2StjVrEXpR6I9P1duE/FMmt+R2vNNiZ5ktPfcbumJ0i3SvppJrNba+SOSeOmmbTtlmd1U9MrZKt1Q9OwYnNUdJ18934WcTyDJfGK9ZzmNXDXzWeuyO1rUUcdDklwtjWJS1tayOma5sv8ASgV7Kd0EL/B4kdGrW9J+8b4Vte4vHh0dvvORSJhMGSQW/tqiBe1be5u2qll5Qp1K13oj6enkn+br/udW1cKGK43S2S34hsfP8do7bYrLjtyhtVzgp3X2jtbEZS+FSpB2sUnQjmPkpH0z3terVXkjUblouGvBYqaWkbdr6rJthJspyrPDzS59skvZJ/S//D9TUTp/z8v/AB/6mIs/Cjj9tghx6v2hnN5wyG/1GR+KFc62JbJauWukr+mV8NFHVyxNq5VlSJ9QrHKxrXo9nNi7zsfB7nkl0xDK8cmpY71h96SvgbVyOZDU0s0MlNVwvc1rlbzhnc9io1f6sUSKqNVyne1rruyasxRuH4/VV1RRNuNzuaSVj2Pl7Wurp6yVObGtTpSSoejU5c0ajUVXLzcuk2rhiwaw45r2xWO+ZDQVmsqmWax3mGen8P7GZV8JpZnOhWOSCZqo2RnZpz6I3IrXsa9Nl1Bg14wnHK+XKJ6ObI8ku9XkF6dRSPkpmVVQ5OUML3ta98cMLIYGvc1qubCjlazn0pvQAAAAAAJVxLfZ1aPeBgn7qtZVQAAAAAAAef8AU9o4p9X6sw3Wfkv1Vc/FLH7dYvDfKJcYfCvBaaOHtez+g3dHV2fV09TuXPlzXlzNr8Y+Kf1N6q+Zdx7iHjHxT+pvVXzLuPcQ8Y+Kf1N6q+Zdx7iHjHxT+pvVXzLuPcQ8Y+Kf1N6q+Zdx7iHjHxT+pvVXzLuPcQ8Y+Kf1N6q+Zdx7iHjHxT+pvVXzLuPcQ8Y+Kf1N6q+Zdx7iHjHxT+pvVXzLuPcQ8Y+Kf1N6q+Zdx7iHjHxT+pvVXzLuPcROsq4lt9Ydktbid70VgMdfST4/FGjdiVvRVx3e5R26CaFy2VOpkVTI1JufJzE5KjXdbOvYMB3BxH7HstRkWP6S1u22x3Gst9PUVOx69jazwaZ0L54eVjVXQuex/Q9eXWidSJ0ua5dl8Y+Kf1N6q+Zdx7iHjHxT+pvVXzLuPcQ8Y+Kf1N6q+Zdx7iHjHxT+pvVXzLuPcQ8Y+Kf1N6q+Zdx7iHjHxT+pvVXzLuPcQ8Y+Kf1N6q+Zdx7iHjHxT+pvVXzLuPcQ8Y+Kf1N6q+Zdx7iHjHxT+pvVXzLuPcQ8Y+Kf1N6q+Zdx7iHjHxT+pvVXzLuPcR1MbxvdF/3RY9jbGxXCsftuP4ve7JFFZMoq7tPUz19Xa5muc2a3UrY2Mbbnoqo5yqsjfQnJVLAAAAAAAASriW+zq0e8DBP3Vazatga4seyIbBBfKqugbjuQUGR0q0j2NV9TSSdcbH9TXc41X/MiclVP7OQ/Gw9ZWHZb8WkvtXXwLiWR0mT0XgkjG9pVU7ZGsZL1MdzjVJXc0b0u9CcnJ/rp7eGXCm5+ma+MWSrb25I7MWYx4TAlpbfHQdktciJD4R1L6ZOyWfse1c6Ts+peZqU/A1rCtoZLFc8yzmtx+GwXfGbPZJbhTNpbHbrhJHJJDSOZTtm/pughSN00kqtbGxiq5rUamaZwnYzLNfLzeNlZzdsnvl1tV88Y6qW3traGvtzHxUs1PFFSMpW8onujcx0Do3tVVc1XOc53Wyng9xDM6OrgyPZuw66pu2OXbGLxW1FxpZp7lSXCbtpOvtKZzIFjlRHRMpmwxMRqMSNWfUM7sLhd1dsrY3lQvsd0przNjVxxStShqkhirqGridE5Zk6VcssbJJEjka5qp1qi9SI1G6x5luE1lLUQZFsvP77LU22yWhaitqbe17KS03GKvoo2NhpI42I2WLpcqM5vbI/qVXqj27anDbgyXaovH0rfe2qdgx7Je3t4elLmyiZRpEidlz8H7ONq9PPr6lVevl6Ds6w0Pa9U1lM2ybAzWusVppJrfYsdr7jEtss9LJIj0hiZFFHJOjEayON1VJO+Njeljm9TuqnAAAAAAAAHwB/xR/v2bN/6L+j0R9/iVab+0Xe3vAo/2rYSqgAAAAAAAAAAAAlXEt9nVo94GCfuq1lVAAAAAAAAAAAAAAPJPHdhdbtJmLYdrWPJ37Gs9dRXtZcchplqKSxNuFPLUOlkqZI4m85aOKaFnV1yT0LGoitR6p6I1JW4PXa0xxda0/g2M0tBHQW2lWB0LqWKn/o+DvjciOjfG6N0bmOTm1zHIvpQ24AAAAAAAAAAAAAEq4lvs6tHvAwT91WsqoAAAAAAAAAAAAB8Af8AFH+/Zs3/AKL+j0R9/iVab+0Xe3vAo/2rYSqgAAAAAAAAAAAAlXEt9nVo94GCfuq1lVAAAAAAAAAAAAAAIbxAW3LcJuVJuPWmUUdovt1rMcwe5w3G2LXUlXSVl6ipaeZWNlie2amfc6mVio/pd1vY5qoqObTNcYLQ63w+jxKiuFVcFhlqqyqrarp7asrKqokqaqoejURqOknmlkVGoiIr+SJyQ2YAAAAAAAAAAAAAEq4lvs6tHvAwT91WsqoAAAAAAAAAAAAB8Af8Uf79mzf+i/o9Eff4lWm/tF3t7wKP9q2EjVNh+nNgVm/M04iG0KXzDsjqqZl7rFRLliVlho4ZrfUW56o59D9Vz6lkkCIskznu+s5OSYraXEFn1l2JRSYNn2Z1tmtuWYbi9ZFLY7HSWnquLqR88Nb4S5t0lrJKer7X/hIYY4vqscxFjmcaHPT7c3rjeicmu23rjJld82HktRY5paGjgo7RU2qivSUbUZTwMklhe6kh7dsr5Fe1Xtb0I7kZXFN7XK+X/a+T2KsyLFMmyjMMRxqS1Wi3UNZeIrqy3dFbbadbi+Ojila6mqG9vUI6Ps43Oaxznxn5x7fO/M5hxfHKTbN4sLpF2a2ruC2uyVFzqW2WqpPo9J3RxS0KSsbM6OR1O3spGq/p+srJW/xOJffuMa88Ya7N5cgrsy1lhuYUyutVug8X6u8XVtHU+CIvYxPjjhqWPYlZI9qSQI6SRI3PRPSHDVluzL7FmuPbMfcZp8cvrKW3z3mqsj7z4LLSwzJFcIbPLJTQzMfI/pVEjV8LoXKxF5udaQAAAAAAAACVcS32dWj3gYJ+6rWVUAAAAAAAAAAAAAAlXEt9nVo94GCfuq1lVAAAAAAAAAAAAAAJVxLfZ1aPeBgn7qtZhOLutkp9d2C33CvlocWvOZWO1ZbUMqHU7G2aeqayaOWZqosUMr1ihkdzRFZK5qqiOVTUM+8jvDtDnFDpy8yYHf6u1WbwnH8XsFNNRwTVdw8DpKuGkekVHFXzukdA18srWOSKOSaOWOn9EixHMdlbG3prugy7N8wSTB9v3qy00Fygx/6QfE3EZKt8NW63xvpFk63VECrC5vKOd6O6ZmtfF0LVxWcSlLrKTaddPV+D5XhNwvsTb27HY6Wy1raqnY2e109HUPrqikpWVMjZ21zFe10MSyPiVz2G+3ja+5sSz/LNPLua4XaJmd4bitPklXa7U24WalulNLUzq5IqdlK+d7mxwROkgVqdvCvZvdz62JbW3Tne1ML1NHuO40NHBes+tVxvtvtVrfU3yOzz25KSR6SUz4Y3t8Klil7FjGuVr+SRu6ezp/DVtHYO0brXUmVXVjnYFaYMXyWOGnhRlZlkVRNHXy9TWosbWMp6eRjG8mK2u58l6WKX8AAAAAAAAAHwB/xR/v2bN/6L+j0R9/iVab+0Xe3vAo/2rYTasj1NqvMMlt2Z5brPFL3kFo7L6Pu1xs1NU1lH2ciyR9jNIxXx9Miq9vSqcnKqp6fScd309qTIMjmzC/atxC5X6pZFFNdKuyU01ZIyJ7HxNdM5ivVGOjjc1FX0KxqpyVqGSoMDwa1RWqC14ZYqOOxVNRWWplPboY20FROkiTywI1qdk+RJ5ke5vJXJLJzVepefQvupdVZRBd6XJdZYpdocgqIau7x11lpp23CeFqMhlqEexUlexrWta5/NWoiInJEP3btV6wtDoX2nXGL0TqdlVHCtPZ6eNY21LY2VDW9LE5JK2GFr0T/OkTEdzRqcuZmuNeRUa26PAsdZSrZW42sDbXAka2lqKjaDp6eXgyI5USH/ACIir9X0nZxHCsN1/ZY8bwPErLjdoie+VlBaKCKjpmPcvNzkiia1qKq+lV5ekzQAAAAAAAABKuJb7OrR7wME/dVrKqAAAAAAAAAAAAAASriW+zq0e8DBP3VayqgAAAAAAAAAAAAAEq4lvs6tHvAwT91Wspd0tdsvlsq7LerdS3C33CCSlq6SqhbLDUQvarXxyMcitexzVVFaqKioqopq1s0rpuyYlccBs2pcMoMYu8nbXGy0thpYqCsk5NTqmp2xpHI7lGz0uaq/Ub/sh/aPS+nbfT0dJQanw2mgt1fSXWjihsNKxlNW0sfZ0tTGiM5Mmhj+pHInJzG+hqonoOtX6U10tNlT8Xxey4pd8zikivV7s1jtza6t7RyukdOs9PJHUK5XP5pOyRF63c0VV5mtav4V9R6xxPIcNZYqTIrdlU8ct3gu1otrKWpZG1Ejh8CpKaCjZG1UV/SyBvN73vcrnOVxQLRr7AsfSzNsOEWC2pjlPPR2ZKS2ww/RsEytWaKn6Wp2LHrHGrms5I7obzReSHR1nra2axsVXaaO83S9Vl0uVVeLpdrq6Fay4Vk7+b5ZewjiiTk1GRtbHGxrWRsaieg24AAAAAAAAAHwB/xR/v2bN/6L+j0R9/iVab+0Xe3vAo/2rYSqgAAAAAAAAAAAAlXEt9nVo94GCfuq1lVAAAAAAAAAAAAAAJVxLfZ1aPeBgn7qtZVQAAAAAAAAAAAAACVcS32dWj3gYJ+6rWVUAAAAAAAAAAAAA+AP+KP9+zZv/Rf0eiPv8SrTf2i7294FH+1bCd3MOIjUWB5DW4zkmSVkdXamQS3eakstdW0dnZN6Y3XCrp4X09A1W/X51MkaJHykXkxeopBp2dbd13rS84rj+b5E22V+a3NtnsUTqWaVKuscrUbF1Rsc2PmrmoiyK1qqqJz5nJBtfX9VtKp0tT5C2TM6OzJkE9sSmm/p0CytiSVZejsufW5qdHX18nIvTyXmbaYPFM2xjN47rLi9z8NZZbrVWSuXsZI+xraZ/RNF9dqdXS70dTebV/0VRa82xi9ZVfcJtlz7a9Y1HSS3Sm7GRvg7apr3QL1uajH9TY3r9VV5cvTy5oZwAAAAAAAAAlXEt9nVo94GCfuq1lVAAAAAAAAAAAAAAJVxLfZ1aPeBgn7qtZVQAAAAAAAAAAAAACVcS32dWj3gYJ+6rWbZsXZuG6pslNkGbV1bT0lZXwWumbRWuquFRUVczumKGOCljkle5ypyRGsX0nBgG2MJ2ZJdKXFqu5srbK+Jlwt92stdaK2mSVquie6mrYYpkjejX9EnR0OVj0RVVjkTYrVeaS8tqnUcNdGlHVy0cnhdBPSq6SNeTlYkzG9pGq/5ZWdTHJ6WuVPSd4AAAAAAAAAAAHwB/wAUf79mzf8Aov6PRH3+JVpv7Rd7e8Cj/athJtaL7cdM3Db2FZPqXLcvrsvyatyGwRW3HqmvtuQU9fTxRR0k9YyJ9PRqx8TqeXwx0bGRtZJzWNUVJBunEsyu+54LlbtEx2y547lGEOpa63YVdLtVNtcElC+rkoL22VlLRUkKvqIHUcNP1yIyWV0be0kfHgbTwxZJd9cayo7RrKvsWXXC6Z3XXO6Ps7qephr2eHrZp62V7EVGte2l7FZVRvSrUZ6FQ7L8D35nlTme3bdgGUY9l+zNc5NVyUk9HNTVFCq3K2U9Ja+1f09lVPttCitZ1MVJJHuTlyV5mazXLquPIqvANMZNadGrmmG1txw+TFKujW4U1PBK26SR2V8bZ5YkkdbHSsSFUnWkmVrJl5q/Vp9UX+azWpXaqr6DVzszzaqZYb9rS65BFB4V4MtpqHWSlmp6ljfB21scMqtVKZZUY5rHOasfoPg+wrPcRyrMFzmmyeaSXFsMpIrpfrclLUVr6ejqWSI/olmjdNH1MbIjZpVRy/WeqrzX0+AAAAAAAAASriW+zq0e8DBP3VayqgAAAAAAAAAAAAAEq4lvs6tHvAwT91WsqoAAAAAAAAAAAAABKuJb7OrR7wME/dVrMJxYYlk2ZY1gdqxV17gqotiY/VS19npGVFRboGVCq+rRssUsSNjT6yuljcxP/EioTvefDVFUTYVUXWTKNpV2Q7Lxx+T1t8oqao/+jUkFY1kE0FFTQ0zKONaiZXdUXJy1MiSOcjkRNDbrVlnviN2npu/XzVVPnefS1OP02KVV0ikqJ3030RVNt0ET3yQpCyvZFO2NY43StXqarmuTH33V2e3DdUVzkxfKLNVpX4fVYRW1WC1d/vVqtNNTUrZ6Rb425JQ0CNmZXpVw1DnrM2eR6eELLGxPoAAAAAAAAAAAAfAH/FH+/Zs3/ov6PRH3+JVpv7Rd7e8Cj/athKqAAAAAAAAAAAACVcS32dWj3gYJ+6rWVUAAAAAAAAAAAAAAlXEt9nVo94GCfuq1lVAAAAAAAAAAAAAAJVxLfZ1aPeBgn7qtZVQAAAAAAAAAAAAD4A/4o/37Nm/9F/R6I+/xKrhou7eN+T5biW9tgYl423CG6XG3Wunsc1L4VHRU1EkjFrbdPK3nDRwc07RW9SKqInMeRvYvtY7V+G4r3MPI3sX2sdq/DcV7mHkb2L7WO1fhuK9zDyN7F9rHavw3Fe5h5G9i+1jtX4bivcw8jexfax2r8NxXuYeRvYvtY7V+G4r3MPI3sX2sdq/DcV7mHkb2L7WO1fhuK9zDyN7F9rHavw3Fe5h5G9i+1jtX4bivcw8jexfax2r8NxXuYx0+u8rpsgosVn4wdoMu1xo6mvpaRbdi3XLT074WTSJ/9G5dLHVMCL/5yNMj5G9i+1jtX4bivcw8jexfax2r8NxXuYeRvYvtY7V+G4r3MPI3sX2sdq/DcV7mHkb2L7WO1fhuK9zDyN7F9rHavw3Fe5h5G9i+1jtX4bivcw8jexfax2r8NxXuYeRvYvtY7V+G4r3MPI3sX2sdq/DcV7mHkb2L7WO1fhuK9zDyN7F9rHavw3Fe5h5G9i+1jtX4bivcx1K/h+v9/ktsOX8RmysgttuvFsva22rpMehgqZ6CthrKdsjqa1RTIztqeJVRkjVVEVOfpLAAAAAAAAAAAAAAASriW+zq0e8DBP3VayqgAAAAAAAAAAAAAEq4lvs6tHvAwT91WsqoAAAAAAAAAAAAB8Af8Uf79mzf+i/o9Eff4AAAAAAHmCv1Pmy8SlnoKDiM2Gyaiwi5zsqp6Wx1EkLJ6+iRYU67fyVj1p2uVVRX84m8nInUjvTNHFPBSQQVVUtTNHG1kkysRiyuROSu6U9Cc19PJPQnM5gAAAAAAAAAAAAAAAAAAAASriW+zq0e8DBP3VayqgAAAAAAAAAAAAAEq4lvs6tHvAwT91Ws3XYOaWvXOC3/AD28te+ix+3VFxlij9MkyRMVyRsT/wAT3qiNa1Oaq5yIiKq8jTNZ78smaWXG25ZbH4rlV+u9zx2SwukfWeDXa39u6qpfCY40jXlHTSysc7oSSNEcxFRTo3Ti40DaLRTX6pzKumt9TS1Ne6oo8eudWylo4KmSlkqqnsad3gtP20MrWzzdEciRvcxzmtVydKo4oMdodneIVdDaGW2CtvlNcLy26SsjtkdtttDXvfUNmp42Iro65FXs5HxtY1ru0c5z448XmnGpqrH8PqctsLLpcUtl0sFJc6O6Wm42SopaK61aQRVzYqulbLNEjUle3oYqP7JWo5F9Jz5vxfYHYsSrstxHsL39H2bJ7jNa7g2vtNxSqstG2plo3081GroHqj2dXhHZOaySN7GTI7kY6t4z8WtGc2nD7pjtTNDX3S4W+trLVTXOu+jEpbPT3Fe1ayhRr5VSoaixxPe1sfTJ1qvXHHZ8e2PheV3GltWO3ttdU1tkpcjhbHBL0rbqlzm086vVvS1JFjk6WuVHL0PXlyavLZQAAAAAAAAD4A/4o/37Nm/9F/R6I+/wAAAAAAJVb/8AieKe/wD+v0dr+0f+nhNxuH/+/Bf/AIKqAAAAAAAAAAAAAAAAAAAAASriW+zq0e8DBP3VayqgAAAAAAAAAAAAAEq4lvs6tHvAwT91Ws7G/NV3bc2OWHBoroyjx+XI6Guydraqemqam2U3XOkFPLAqPZI6qjpObkexUYkio7qRGujmb8JmxLbDmdLpLKaKk8NuVlzPFKvJ77cbjU27J6ZXU9Y+eWds80lPPQpEzq7VXtd1t6OlUVMfuzhF2rlWIt1TrnKKKPC6bXcGH2ynq8ru1obQ10bZmyVk9HQMWK5JOx0DHNqH9MfQ53RL1PY/s1nCxulmZ3/N8azDG7Jc6+qyeutlXHUTyyUNRcMftVvpZOSwojljqbfK93+nQsaojlVzG6zNwfb5qJ73fYrji8NzuM2F1dPBdc3vmQdnNZLrLVypJWV0KzOZK2Xqa1jY2scqs6f7yvymbcIO3s/qstzG6XXD7fkOb2/MYa2309fVS0NvluVjpLTb44p1p2unajaJks8qwxO5yKjWP6UV2y45w3bJw3Ztr2QysxytprfnNdkNRTJV1LZfo2pxyhtj1j6ad6vqGSUkj2w8ka9qtTtGqqomycHuvK/EMTyK+XCjuVLTXW81FBjNLcrfPQ1VFi9DLJDa6aSnm5SRcmLNKiPax3TOnUxi82p6AAAAAAAAAAPgD/ij/fs2b/0X9Hoj7/AAAAAAAlOIf8TxK7Mrf79hi+KW/n/t0TXebl/+k/8AyVYAAAAAAAAAAAAAAAAAAAAAlXEt9nVo94GCfuq1lVAAAAAAAAAAAAAAJVxLfZ1aPeBgn7qtZVQAAAAAAAAAAAAD4A/4o/37Nm/9F/R6I+/wAAAAAAJVrL/iN0bkrf79hcrNbuf/APRaoJuX/wCk/wDyVUAAAAAAAAAAAAAAAAAAAAAlXEt9nVo94GCfuq1lVAAAAAAAAAAAAAAMTlOJ4rnNiqsWzXGbVkFlrejwm3XSijq6Wfoe17OuKRHMd0vY1yc09DmoqelENA807hY9mnVX5Nt38I807hY9mnVX5Nt38I807hY9mnVX5Nt38I807hY9mnVX5Nt38I807hY9mnVX5Nt38I807hY9mnVX5Nt38I807hY9mnVX5Nt38I807hY9mnVX5Nt38I807hY9mnVX5Nt38I807hY9mnVX5Nt38I807hY9mnVX5Nt38I807hY9mnVX5Nt38I807hY9mnVX5Nt38I807hY9mnVX5Nt38I807hY9mnVX5Nt38I807hY9mnVX5Nt38I807hY9mnVX5Nt38I807hY9mnVX5Nt38I807hY9mnVX5Nt38I807hY9mnVX5Nt38I807hY9mnVX5Nt38I807hY9mnVX5Nt38I807hY9mnVX5Nt38I807hY9mnVX5Nt38I807hY9mnVX5Nt38I807hY9mnVX5Nt38I807hY9mnVX5Nt38I807hY9mnVX5Nt38JVQAAAAAASrS39fN91XH+/hOfRsav8A+WGwWiHl/wD3Rv8A/VVKqAAAAAAAAAAAAAAAAAAAAASriW+zq0e8DBP3VayqgAAAAAAAAAAAAAAAAAAAAAAAAAAAAAAAAAAAlXD/AP1oNhXL/wDjNgXv0/79jK2m/wD+HL/0KqAAAAAAAAAAAAAAAAAAAAASriW+zq0e8DBP3VayqgAAAAAAAAAAAAAAAAAAAAAAAAAAAAAAAAAAAlXDV/V13da9f712cZlUov8AuxciuCM//wAEYVUAAAAAAAAAAAAAAEftPFZqW/2qivtit+yrjbbjTx1dHWUmrcomgqYJGo6OWORtvVr2OaqORyKqKioqHb85bXX4c2r8p8q7uHnLa6/Dm1flPlXdw85bXX4c2r8p8q7uHnLa6/Dm1flPlXdw85bXX4c2r8p8q7uHnLa6/Dm1flPlXdw85bXX4c2r8p8q7uHnLa6/Dm1flPlXdw85bXX4c2r8p8q7uHnLa6/Dm1flPlXdw85bXX4c2r8p8q7uHnLa6/Dm1flPlXdxD+I3NU2NbaOTDcy4haBseSYxVuslDqGvSkhhpb1Rzz1jX1VifMskMUT6hrVmVrnwtb2ciOWJ9VxDe+IY1Zm2u9XTeGWVLZHPW43jUN9jqHIv9mK2js0EXJP9OUfP/dVM35y2uvw5tX5T5V3cPOW11+HNq/KfKu7h5y2uvw5tX5T5V3cPOW11+HNq/KfKu7h5y2uvw5tX5T5V3cPOW11+HNq/KfKu7h5y2uvw5tX5T5V3cPOW11+HNq/KfKu7h5y2uvw5tX5T5V3cPOW11+HNq/KfKu7h5y2uvw5tX5T5V3cPOW11+HNq/KfKu7jK4dvTX+c5UzCrQzK6K9TW+oukNNfcOvFl7elgkgjmkifXUsLJOh9VTo5Gqrk7Vq8uXpKAAAAAAAAAAAAAAAAAAAAAAAAAAAAACVcLn9TRmO1v/wDMJLhcef8Av4RXTzc//XtCqgAAAAAAAAAAAAAAlXCd91jTfu/x79OgKqAAAAAAAAAAAACVZH96fXnu/wAy/UccKqAAAAAAAAAAAAAAAAAAAAAAAAAAAAfmSRkMbpZHI1jGq5yr/oif3JdwqxvZwzaqklarZKnDrRVyIv8AdHy0kcjk/wDd6lTAAAAAAAAAAAAAABKuE77rGm/d/j36dAVUAAAA8w6c4hcpk27uTG9sZDRpi9gvV2fjdU+njidR0lshpH18Mjo0TraxldSyMVyLIvOo5ucjURuo6/4x8sxvXeS5ZuaoskV7uux4sdx23Xm401ioLRBU2ShuTaatrHNd2bKdk1Qkkytle6TpY1HK+Nqbpi/Glb84oYccwjHMdyTYNVlHivT22z5bHWWGZyUbq91a27xwKq0raRkiuVKbtknY6Hsl9Ei/vJ9y8RNLtnWOHW/WFtoLnkFvy1LrYazIYvouZ1BLbvBa9tyjpJKhIFjnl6GpTMkV87WyxtRvWzIxcUd+u2qMZ2xZ8HxSzWi6UtQt7uWZ5zDZLTaK2Cq8EfRJVNp55J5HTtlRjuwjY5kfNXMe5sS4XCuL/NdsR4NTap0pQ3G4Zhhc+XzMu+VpQ01B2FWlLNT9tFSTrNzlXlHIjGo9OSubGnPlw0/GbZZqWn2JHZb9NZbhrK05fS2iKppXddbXXFaSGlaiwtekyzOjiWR1R2XL09m1UV62/XmSbQvFTc7fs7WduxeakSCSiqbVkP0vRVzHtXrakjqenljljciI5r4UaqPYrHyfXRm6gAAAEqyP70+vPd/mX6jjhVQAAAAAAAAAAAAAAAAAAAAAAAAAAADX9h3D6IwDJrt1dPgVnrajn/t0QPd/2MVpG3fRGl8BtPT0+BYvaqfl/t0Ukbf+xuoAAAAAAAAAAAAAAJVwnfdY037v8e/ToCqgAAAHnHKODehyq33+31efzwNyHYtRmtS+C2ojn26roo6Gvs7+ci9cVRTJKx0no5K9juzVY055i78MdVPc71lmP7CW1ZRNsJNg2K4La+2ht8y2unts1HUQ9q1aqCWnima/pfC/lOnSrXMRy969aS2XkkNlye+7jops9xi+OvViuEWLsis9C19LJSTUngHhC1EsMsE0qu66xZElVr2PY1qRHfsem8yXYWI7NzzaEeQ3jGqLIKOWKCxR0NK9lykoXMjp2Nle+GKFtCiIkr55HrK5VkRERpNsf4Mr3hdRh15xLZlhfe8SpL3QwVt9w5LkymS4XKWt8JoI/C41o6tiTPhWVXStkYjeqNERWrtWiOFx2k7rjFxXPXXxMaxOuxVjX2xKd9QyounhrZ3OSVyI5reUatRvJy83p0IvQmp4/wADFttmE0OFXTZNXUxUGAW/C4quktjaeaOpori6vguDOuSRqK2bs17JyOT6npcqLyS5YHj+0LZW3C5bK2Ra8hfUMihpKKzY79E0NK1vUrpOmWoqZ3yvV3JyrP2fSxiNjavW5+5AAAAEqyP70+vPd/mX6jjhVQAAAAAAAAAAAAAAAAAAAAAAAAAAACccSVwW08O20roi8lo8Lvc6L/5toZl/7G8WC3pabFbrUicko6SGn5f7dDEb/wBjvgAAAAAAAAAAAAAA8v8ADJf+JKHht1RDYtT61rLazB7E2jqKvYVfTTzQJQQ9m+SJtlkbG9W8lViSPRqqqI53LmtL8Y+Kf1N6q+Zdx7iHjHxT+pvVXzLuPcQ8Y+Kf1N6q+Zdx7iHjHxT+pvVXzLuPcQ8Y+Kf1N6q+Zdx7iHjHxT+pvVXzLuPcQ8Y+Kf1N6q+Zdx7iHjHxT+pvVXzLuPcQ8Y+Kf1N6q+Zdx7iHjHxT+pvVXzLuPcQ8Y+Kf1N6q+Zdx7iHjHxT+pvVXzLuPcQ8Y+Kf1N6q+Zdx7iHjHxT+pvVXzLuPcQ8Y+Kf1N6q+Zdx7iHjHxT+pvVXzLuPcQ8Y+Kf1N6q+Zdx7iHjHxT+pvVXzLuPcQ8Y+Kf1N6q+Zdx7iHjHxT+pvVXzLuPcQ8Y+Kf1N6q+Zdx7iHjHxT+pvVXzLuPcQ8Y+Kf1N6q+Zdx7iHjHxT+pvVXzLuPcQ8Y+Kf1N6q+Zdx7iHjHxT+pvVXzLuPcRq1ouO0bhxSYWuzMOxawOjwDLfAUsWSVF3SdFuOPdr2qzUNJ2XTyj6entOrqdz6OlOq/AAAAAAAAAAAAAAAAAAAAAAAAAAAAED4l6jG6y9Y7iW4clqce1JerZdYr/WMuElupqqu50zKairKyNzHQQSQyVrunra2V0aNc5OSMk2XhsveQX3A6+oul0uF3s0F8rqfF7vcnPdWXOzNcnYTzK9jHO+ssrGSKirLFHFKrnrIrlq4AAAAAAAAAAAAAAIzw45BaMT4ONX5VkFX4La7NrOyXCun7Nz+yp4bVC+R/SxFc7k1qryaiqvL0IqmYuHErpK1ars266/OGR4ZkM8FNbbklBVOWolmerGMSFI1mavU1yKjmJ09LldyRFKcYHOM6xbXGOyZZmd0+jrVDU0lG+o7CSblNVVMdNA3pja531ppo28+XJOrmqoiKqZ4HRobxSXCuuNughrmS2uZkE7p6GeGJ7nxMkRYZJGIydvS9qK6Jz2tcjmKqPa5qajmG89XYGuTtyjI5aZ+G0ltrr1HFbaqofTw3CaSCjVrYY3LKsksMjUbGjnIrfrIiKiryYNufX+xL1W41j9bdqW9UFLHXTWu+WC4WWt8Fe9zG1DKevghkkh62OZ2jGqxHJ0qqL6D9Z9ufXGsorlNmd9npEs9BT3OuSnt1VWOgp56lKaBzm08b16pZlcyNnLrf2cqtRUjkVuBj4ndNpSXaquV7vdkWyw0lTV099xa7Wqq7CpqEpoZY6erpo5Zo1nc2NXxtc1jnN6lbzQzN/3jq/GciumLXjJHsr7DTUlZeHQ2+qnp7XFUzNihdV1EUboabqV6P5SvarYkfM5EiY+Ru9gAAAAAAEqyP70+vPd/mX6jjhVQAAAAAAAAAAAAAAAAAAAAAAAAAAADyTxuVly2pZptG49cqiitVJX49JltdBzRzZLhdqalt9FG5PR2ivkdVPTnza2CBF9EyF70pnFyz3XlBcsiijgyO3ST2bIYGJybFdKSR0FSjU5J9R0jFkYv+scjHJ6FRTewAAAAAAAAAAAAAAeb8It1wvH+HNYLRaKCorq6u0nS01LS00TpZZ5X2JrWRsY1FVznOVERqIqqqoiHmjMNObfrcHr9XeTvKJscwujgzSwqy3zP8Kul2WgbNTxsa3mstPJLkDpGclc1tVGq9PpVaFY9ZbDTiimv18t9xpr/HsqrukN4o9fVk9TUY46nckMMuRSVzaJtv8AB1ZCtGkbpWTMRzYFd/UNQuOrWXXh7mw5+iM9ftmdtgp9g3qKw1cEN2rGZPb5auSSp+ql0kXs6ieOpgSdsUCSr2sLXo12ezDW9Rht3yTA7doemfr520Zq62x1eA3LI7Fbad2NUi9pFY6CSJKmOWsWdjZF5wQS9o7k2RUVNDx7h+y3J9eVNLsPTV8r7jj2gbzbLPBcbHO9aG+wXSvSjipWu60ZVMj7PsOzc56RPb2TlY/m6h1OEZXU7OuV/wBsa4yO/a6q8vtlfk9BLjdVdGXJUwuhgp55KGKKSStijr2OY5GRyNjma1z2osSuZw5lg1+fh22KjENRZ9arJV4jraOx2mutlRV3BIKO8V0klO1kbpnySQQOic6JrnyRscxHo1fqpfLHcKjbHEfjWxcXxnJ7XjmH4jebXX3G+Y9XWV9fV3CqoHw0scFbFDPI2JtDJK6ToWNFkjRFVyu6ZtvXF8kyKz8R2LWqgutZkN1veG3G2R0FGtRVttHK3xxyRN6X9TGVNJdX8larUVsqqnLmZLiX4d8mk09mt8tWdZxnme3SjtFmtldcKChqJ7dSsu9NUP7Ckt9JTxvTqaksivY5ypA1FcjW8jsWC2+QjCdr6e2TZbpeMdfa7xlMObTULpFyKnqmSLVQ3OeNiRJcY3KkKc1Z20KQdm1vS5jL5qSgyK16qwy2Ze9z77SY9boLo5391q2U0bZlX/z60cbYAAAAAACVZH96fXnu/wAy/UccKqAAAAAAAAAAAAAAAAAAAAADy/wycMnDbf8Aht1Rfb7w+a1uNyuOD2KrrKyrxOgmnqZ5KCF0kskjolc97nKrlcqqqqqqpS/NO4WPZp1V+Tbd/CPNO4WPZp1V+Tbd/CPNO4WPZp1V+Tbd/CPNO4WPZp1V+Tbd/CPNO4WPZp1V+Tbd/CPNO4WPZp1V+Tbd/CPNO4WPZp1V+Tbd/CPNO4WPZp1V+Tbd/CPNO4WPZp1V+Tbd/CPNO4WPZp1V+Tbd/CPNO4WPZp1V+Tbd/CPNO4WPZp1V+Tbd/CPNO4WPZp1V+Tbd/CPNO4WPZp1V+Tbd/CPNO4WPZp1V+Tbd/CPNO4WPZp1V+Tbd/CPNO4WPZp1V+Tbd/CPNO4WPZp1V+Tbd/CPNO4WPZp1V+Tbd/CPNO4WPZp1V+Tbd/CPNO4WPZp1V+Tbd/CPNO4WPZp1V+Tbd/CPNO4WPZp1V+Tbd/CPNO4WPZp1V+Tbd/CPNO4WPZp1V+Tbd/CPNO4WPZp1V+Tbd/CapaNT6s1fxT4V5M9aYpiX0nr/LfDfoKzU1B4V2dxx7s+17Fjevp7R/T1c+XW7l/dT0AAAAAAAAASrhO+6xpv3f49+nQFVAAAB03Wi0vu0d/fa6R1zhp30cdasDVnZA9zXviSTl1IxzmMcrefJVY1VTmiHcOndrNZ79Rpb75aqO40rZ4KpIKuBs0aTQytlhk6XIqdbJY2SNd/drmNcnJURTuAAAAAAAEqyP70+vPd/mX6jjhVQAAAAAAAAAAAAAAAAAAAAASrhO+6xpv3f49+nQFVAAAAAAAAAAAABKsj+9Prz3f5l+o44VUAAAAAAAAlXCd91jTfu/x79OgKqAAAAAAAAAAAACVZH96fXnu/zL9RxwqoAAAAAAAAAAAAAAAAAAAAAJVwnfdY037v8AHv06AqoAAAAPNmD7Z2LattbssdNqvYOfUFtzGlhoprZc7QlNbo3WO2vWmYy4XCnez673yqkbFZzlVeauVyJLdTb12zRYTj9ztmO3jM8m8m2d5HT26tulXPWVdbR5BTw09K6Nk7oJVRkvQioySVEYkcMiNe5r+zsXfOz810lmsmIbuwaS843k+M0klRaMeu9jvFE2a6wwT0tdaaqrSpo/6nRykdK5s8PhEXZx+iU3jKuIfc1lxzYW1bbT4bU4bqa6rZ73bpLbVNuV68EbE651dNP4V2VGjUlf2MD46hXdj9aVvaJ0cd44gt60FBtLZEMGEeJmrsw+g6q2utVW641VsglpZK6s8K8LSKJ0dLUSqjOwciuh6lVEXoLfrfOrlnl3zOqYyhXHrNfX2OzzwMf2lUtPDGlZI96u6XI2rdPAiNanJadyqq8/RvIAAAAJVkf3p9ee7/Mv1HHCqgAAAAAAAEI0nlviBwL4Fnf0f4f4t6mtd38F7Xsu38Hs8cvZ9fS7o6ujl1dK8ufPkv8AY1TIuOKhsHDziG7F14s14ym8usb8Z+mEa+jnhknbVudUdivUyJKd7kd2aI/riRFTtGqthi33qibYHkxiyeR198Ofak5W2r8CdcGQeEPokruy8FWqbD/UWnSXtUaiqrfQpoWxuM/U2HYffMnx2rlyCaxVNC2SGSmq6Cmq6Wa7U9tnq6Srlp1irIoJKlFc+nWVvNGNVzetqm1Q8T2maiyMvdPfL1Mr7zNj6WyPFrq+7/SMUCVEtP8ARiU3hiOZAqSu/o8kYqOVURUUxdz4xeHa00Fuuc+dVdRTXOweNMT6HH7nWdlaUkdE+snSCnetPFHIxzJHTIzsnckk6FciLlq3iHwCyXXJaC+3WFyWS80dkpYLPS191r66oqLdDXNYykgpVfI/sZXScqZahqQsWRzmKj2R65ivFrhWXbzpNRWuhWS1XnGqC/WPJWzu8Hr56pKl7aFYnRosM3Y0dRK1HO5qkEyK1rmcl4se4x9XSayx3Yed/SFgmvtmq7/PbrdbK++Ot1vp5XRy1VS+jpnLBAip/wDelbGz0ORFXodyzeS8WmgMSyKvxe95zMyutdRS0lY6mstwqqeCeqpWVNLG6ohgdD1TxSMWFvXzldzZH1Pa5qdmq4otJUmK2/L35RcJaS51tfbqejp8euU90SooVelayS3R061kXYLE7tVkhakf1epU6286RY73aMmslvyTH7lT3C13WlirqGrp3o+Kop5WI+ORjk9Dmua5FRf9UVDvAAAAAAAEqyP70+vPd/mX6jjhVQAAAAAAAAAAAAAAAAAAAAASrhO+6xpv3f49+nQFVAAAABq2Ia7smFX/ADHI7VVV0tTm94jvdwZUPY5kU7KKnpEbEjWorWdnSxrycrl6lcvPkqIk9s/CfgNioaOjtWVZnRvt+O3vG6aro7slJVQwXS4RV80zJoGMeyZk0DEjc1UajeaOa/nzPxduFTHMooMlTN9kZtkl7yWkttC+/wBa+3Q1lFT0FZ4ZSx08dNRxUqIypVZFV8D1cq8nK5qI1P3e+FPD8grbmy5ZvmDrBklVS3HJ8bZUUbLZf66BI0WpqWpTdtG6XsYe2jppYYZOz+tGqOejsxdda2jA8C2TDj+I33OHZ1cK67XCwx1lJDLVzVkUdPLBDJO6GKOLoYir1vVyJ18levS1cxonWUem9PYlrPwltVUWK2RQV1W1znJV1zvr1VRzd9ZVlnfLIqr6eb/Sb2AAAACVZH96fXnu/wAy/UccKqAAAAAAAAQDUuK3DOuAfDMItE1PDXZDqC3WqlkqXObEyWeyxxMc9Wo5UajnoqqiKvLnyRf7Esv3BDsa5RZJQ0uT419G1lgt0VloXyTsZR3l/wBFsuk71bEvOORloiWNyIruuoqObWdaqu22jhSye17imyGqbarpjT88qM6hra3L7/2tM+Xql8HjskcjLf2zKh7umrc9ydmvJ0Dnek6DuG/fcuibbw7LW69ix7E0sdLabp4VWyV11it95o6ps07exayiXwWkciws8JR8r2/1Y2sVXZLNeHrdtRmWT5BiORW19myPOVyOss0OXXXHJa2jSw0tBEklwt8LqiN0VTTvl7BnOORqsVz0VqNTVsL4M9oY1hd5xmuyLGKiordQXrXcE7KqqVr66quFZPDUP64nPbEsdRH1qrnva/rRO0REe7YLdwx7UxPZDdt4/U4pdLra75S3ChtNZcqmkp6un8V6Wz1DZallLK6CRs1OsrOmKVHMRGu6FfzZnJOG7P8AMbnnORbDyHG6K/ZPYMX+i7jj1PM1LPf7VUXCpbVRRz9SrGyWrgRFV6rM1syPbGj+kmFz4P8AiKrtPY9qV+ZWCSip8ErccrYKTL71aaOjutRPK59ckVJE36TiWKSOPsKpWMb0OXk9Hvau4M4VNkPrLjWz3bGmOr89wDK0YyrqHIymsdJboayPmsCc5HPo5eyTlycisVyxqqo3pX3hJ2O3IvHez3C219whyvLriy2w5pesabLbbzNTTRuWvtrO3ZNE+ih6oezfFIj3c3I5jHHozUOCR6x1jjOv4qe3QJYrbDRujtyVCUrXtT6yReEyyzdHUq8u0ke7l/dVNvAAAAAAAJVkf3p9ee7/ADL9RxwqoAAAAAAAAAAAAAAAAAAAAAJVwnfdY037v8e/ToCqgAAAAAAAAAAAAlWR/en157v8y/UccKqAAAAAAAASrhO+6xpv3f49+nQFVAAAAAAAAAAAABKsj+9Prz3f5l+o44VUAAAAAAAAAAAAAAAAAAAAAHl/hk4ZOG2/8NuqL7feHzWtxuVxwexVdZWVeJ0E09TPJQQuklkkdErnvc5VcrlVVVVVVKX5p3Cx7NOqvybbv4R5p3Cx7NOqvybbv4R5p3Cx7NOqvybbv4R5p3Cx7NOqvybbv4R5p3Cx7NOqvybbv4R5p3Cx7NOqvybbv4R5p3Cx7NOqvybbv4R5p3Cx7NOqvybbv4R5p3Cx7NOqvybbv4R5p3Cx7NOqvybbv4R5p3Cx7NOqvybbv4R5p3Cx7NOqvybbv4R5p3Cx7NOqvybbv4R5p3Cx7NOqvybbv4R5p3Cx7NOqvybbv4R5p3Cx7NOqvybbv4R5p3Cx7NOqvybbv4R5p3Cx7NOqvybbv4R5p3Cx7NOqvybbv4R5p3Cx7NOqvybbv4R5p3Cx7NOqvybbv4R5p3Cx7NOqvybbv4R5p3Cx7NOqvybbv4R5p3Cx7NOqvybbv4R5p3Cx7NOqvybbv4R5p3Cx7NOqvybbv4TVrRqnV2ruKTC49Z62xbEW3TAMtWubYrPT0CVSxXHHuyWXsWN6+jtJOnq58ut3LlzUvwAAAAAAABKvNO4WPZp1V+Tbd/CPNO4WPZp1V+Tbd/CPNO4WPZp1V+Tbd/CPNO4WPZp1V+Tbd/CPNO4WPZp1V+Tbd/CPNO4WPZp1V+Tbd/CPNO4WPZp1V+Tbd/CPNO4WPZp1V+Tbd/CPNO4WPZp1V+Tbd/CPNO4WPZp1V+Tbd/CPNO4WPZp1V+Tbd/CPNO4WPZp1V+Tbd/CPNO4WPZp1V+Tbd/CPNO4WPZp1V+Tbd/CPNO4WPZp1V+Tbd/CPNO4WPZp1V+Tbd/CPNO4WPZp1V+Tbd/CPNO4WPZp1V+Tbd/CPNO4WPZp1V+Tbd/CPNO4WPZp1V+Tbd/CPNO4WPZp1V+Tbd/CPNO4WPZp1V+Tbd/CPNO4WPZp1V+Tbd/CPNO4WPZp1V+Tbd/CPNO4WPZp1V+Tbd/CPNO4WPZp1V+Tbd/CPNO4WPZp1V+Tbd/CbBhWkNL61ust91zqHCsVuU9O6klrLJYKShnkgc5rnROkhja5WK5jHK1V5c2NX/RDdQAAAAAAAAAAAAAAAAAAAAAQfS12uFg4FcEvtpqOwrrdqW11dNL0Nd2csdnjcx3S5FReTkReSoqf7k/sHFNfsppuHC02muyuC65jcKGHK6i5YPX26kuMbrJVTypFVVVJHTu6qiON6eDP5q1qq3nH1HLqLjGveXpr3HFxe2S1eSWOxV0j8lzKkt97uK1zXLJPQUraKGC4xU7W85nxLA7myVrIHOaxsn91RxLbrumE4zY6/BLDlmxspvmZrSUy5H4BRR2mz3KaB7pahtDzbI2R9PSxMSBe1ajZpHxqsjWc1u44LrlNsyDMMH1FFcMTxLGbHld8rK3IHU1bBR17HSStipWUkrZX00cFU56LK1ruyToc7r5ptt23lkd53HgWNYx0UWNVmfXfFa2dr4p0vMVJj1VVyKnNnOFsVbH2f1H9TnUz+ao13Ss3wbYu67TobX/Ejft0XvJG3a+2miv8Aj1xtVpZQvoq+6stzlpXUtJDURzRrPFKxXzPavZua5q9SK30HneX3qDaGv9Z2GudQPv30lfblUtjY97rbbkgbJTs62ua10tRW0bXO5dSRJN0q16te3zVoHb+6M9tetMhodi7Pyq+Xu8IzJbVdcChosZhtnVO2omiuTLXTtV0bGMdH0Vkivl6WK16K5EyXC3xD7J4lW4tjkWbz2R2NW5L3lV1ltMENbk0i1lRTtpaCOWDsfAo3QPZU1MTFd2iMijVjldInoLSWX3zJLHfbBlVwbcL7hN/q8ar69I2RuruybHLBUvZGiMZLJTT075Gsa1iSOf0tY3k1KKAAAAAAACVZH96fXnu/zL9RxwqoAAAAAAAAAAAAAAAAAAAAAAAAAAAAAAAAAAAAAAAAAAABGOHKxUmUcG+r8ZuEk0dLd9ZWShnfCqJI2OW1QscrVVFRHcnLy5oqc/8ARTYX6KxF9p1hZ1uN37HU1RTVNld20XVUOgt8tCxKlez5PRYp3uXoRn10RU5Jzaup41wl4ti9rxPF6LZWfVOK4klmkgx2rrqSahqqm1vZJR1D1Wm7aJ6SQwPcymlhikdEivjd1Sdf9XhPxmkoKSDHNlZ1j9fab3frtaLrbqigSrtkF4ldNX26JZKR7H0r5ndq3tmSTMeyNWyp0NRO1jvDji2o7HlvkkskNdVZBjtrx6OzX25vitqwUEM0MLXzRwyTt621EiyPVJHOXly6eaqcmtuG6wYVh+pLNcbzcKu6asfUXFlTFNzZcblV0dTBWzTdo1z3Ne+tqZU+sjupWqqqiKi9DCuE/H8QoMZxys2jnWSYth9wiutnx26vtjaKCrhkdLBK99LRQ1E3ZSO7RjZZns62scrVVjVTe80we53bOMK2Bj09My4YzUVdHVxVMjmMqbVWsY2pja5rXKkjZIKWdvo5OWnWNVYkiyM7mrdcWPUeAWbXON1VdU22xwugp5a57Hzua57nr1uY1rVXm5f7NT0cjS7VwxYNYcc17YrHfMhoKzWVTLNY7zDPT+H9jMq+E0sznQrHJBM1UbIzs059EbkVr2Nemy6gwa8YTjlfLlE9HNkeSXeryC9OopHyUzKqocnKGF72te+OGFkMDXua1XNhRytZz6U3oAAAAAAAEqyP70+vPd/mX6jjhVQAAAAAAAAAAAAAAAAAAAAAAAAAAAAAAAAAAAAAAAAAAACVcJ33WNN+7/Hv06AqoAAAAAAAAAAAAJVkf3p9ee7/ADL9RxwqoAAAAAAAAAAAAAAAAAAAAAAAAAAAAAAAAAAAAAAAAAAABKuE77rGm/d/j36dAVUAAAAAAAAAAAAEqyP70+vPd/mX6jjhVQAAAAAAAAAAAAAAAAAAAAAAAAAAAAAAAAAAAAAAAAAAACGaMq8hoOB7X1diMDp77TaptMtribGkivq22iJYWo1fQ7m9Gpy/1NG0ziHDpYcF0ptmiucNtzTKGUvLJLcnb3XKbhUUckldT3KdI5JaqNXNnlmSZUSF8DXdUSxN6YhlfFnvGzWG7ZHjOw8mqqa9a5ueZ2esv1jx+npVdHcqCKlqbdS0j5aqKldFUzM7O4OdKqI30q9r1bsm+ceqbevEDjeS5DW5ZImNaxgq6+7U9K2Wta+/XHqSWOniig5cndPJsbU6UTnzXmq2yxYRg+quLLHcV01i9nxm3XnBLvXZZZrHSR0VEnY1tE22VklPCjY0nc6W4RNk5K97GyJ6UjTpmvFJHJlmIcRFxu9uo7hU2C54niVppqxU7HwB8lrrpW8+lysbPUVr2yqjV6200PNHdk1EblwC76x19itdhnDnqbCcmrNoYr4JbsSuKNpLo+Oof2PhlQlupXMRr5H/AP7uXk1zlT0r0n8o6SyRcOWz9m3xj035gyzX/Kq2ujZ9JUWQUEXhVLS0z+XNltljayOmjjVY5aWqcjke+adHe1GOVzGucxWKqIqtdy5p/wCS8vQfoAAAAAAAAEqyP70+vPd/mX6jjhVQAAAAAAAAAAAAAAAAAAAAAAAAAAAAAAAAAAAAAAAAAAACVcJ33WNN+7/Hv06A2qx6m1XjOWV+e43rPFLTk117Xw+9UNmpoK+r7V6Pl7WoYxJJOt7Uc7qcvNyIq81QxlNw/aGo4ammpNJYDBDWLOtTHHjdE1syzdHbdaJHyd19lH1c/wDN2bOfPpTlnb7rvX+UR3eHJsGx67x3+np6W7Mr7ZBUJcIKd7nwR1CPavasjfI9zGv5o1XuVOSqpxYPrHWusqWqotba9xnE6etkbLVQ2O009Ayd7U5I57YWNRyonoRV5nWuOrMOu+UXPJrrbYq1t8t9JQXS21UEM9DXeCzOmpZ5IpGKvbROfIjXIqc0c3qRyxxLHsN2sVjvzaVl8s1DcW0NXFX0qVdOyZIKmJecczOpF6ZGL6WvTkqL/ZUNXzXTuCZ3WsuV2s9PBWSz0L7jVUtLAyoulNST+EQ0NVMsayPpUmRr1iRzUd0q1ebHyMfuwAAAAAAAABKsj+9Prz3f5l+o44VUAAAAAAAAAAAAAAAAAAAAAAAAAAAAAAAAAAAAAAAAAAAAlXCd91jTfu/x79OgKqAAAAAAAAAAAACVZH96fXnu/wAy/UccKqAAAAAAAAAAAAAAAAAAAAAAAAAAAAAAAAAAAAAAAAAAAAR7hmu1vsHCFqm+3ao7Cht2t7FV1MvQ53ZxR2uFz3dLUVV5NRV5Iir/ALGUwbiQ1JsS8WixY9d73BV5DRvrrKl5xi6WeK6wsY2RzqOWupoY6lUjeknTE5zujm/l0oqpTQdG+Xmkx+1VF5r4a6WnpWo57KGgnrZ1RVRPqQwMfK9fT/ZrVXlzX+yKd41TB9n4bsihobrhlbXXC33Oh+kaStW1VcNNLD2rouSTSRNYknWx3OJV7RE5O6elUVdrAAAAAAAAABKsj+9Prz3f5l+o44VUAAAAAAAAAAAAAAAAAAAAAAAAAAAAAAAAAAAAAAAAAAAAgOoqOruPAThVvt9LNU1VTqG2wwQQsV8ksjrNGjWNanpc5VVERE9KqpoWIS3nZeJcOuvcdwzNLXc9e1FovOR11+xO5WiltrKK0TU0kLZayGFKiWSWdsSMgV/NiyucqMT60S1/pfPGYxeKXL7RmdBfH4Zc7Xn/AIu6yqoai81z6yBz5a6uq7g6PIXrI2okatFE501NLUxosXbRxOoNmwp6WDF2ZTpVH6mos9udTfLNZdf3WkortA6zMZR1q4vN4RVU8La7rjWBsbmLNE2rViJJ2rdVyjSC5BYt25FYNB5ZRPbheI0WC098tElVdKOH+u2opqZ/VM5HpE2BsjGSK9rEjZJyVvSnPgeGWfMtsZDFj+trnW5hTb7vLrrf5bHM6jbi3TM2spJLg5ng608iSyxrQ9p1OllSVYVRe0XVMK09sO26zq7HjepcotTaTXNDbMgoIcfqbfLcWRZTJPdaKFXMjSommt6yoiRq5ZWyI1qr1IqbzYtJUuabuxSlh0hcoNHzZ3ea614/d8Ymo6Ckp/FyNksstvnjatJTTXKJzo4pmRtdJze2NOtFd6b4Q7PkOO8OOE47lFtudurrVST0KUdyikjnp6eKplZTxq2Tk9rWwtiRqL/4Eby9HIsIAAAAAAAAJVkf3p9ee7/Mv1HHCqgAAAAAAAAAAAAAAAAAAAAAAAAAAAAAAAAAAAAAAAAAAAEq4Tvusab93+Pfp0BVQAY+0Y/YcfSsSw2SgtqXGsluFYlHTMh8JqpFRZJ5OlE65HKidT15uXl6VUyAAAAAAAAAABKsj+9Prz3f5l+o44VUAAAAAAAAAAAAAAAAAAAAAAAAAAAAAAAAAAAAAAAAAAAAlXCd91jTfu/x79OgKqAAAAAAAAAAAACVZH96fXnu/wAy/UccKqAAAAAAAAAAAAAAAAAAAAAAAAAAAAAAAAAAAAAAAAAAAARPh+v/AIqcFetsp8E8K+htXWe4dh2nR2vZWmJ/R1cl6efTy58l5c/7KdHCeIjPa3ycXbZmrLHj2O7SZBFZLlZ8qlur6atnpFq6enrIZaKl7JJIo5WpJG6VEla1ioiPR51NhcbunsUwLK8txaW65LXY7Y6u+0dClluVJBeKeCZkL5aSsfSrFPTpLLGjqiHtYmNej1Xo+sb3U8RmoKLK7ZhVdklbTXe6/R7GRTWSvjjpZq5FWjpqyZ0KRUVTNy5Mp6l0czlc1EZzc1FpQAAAAAAAAAABKsj+9Prz3f5l+o44VUAAAAAAAAAAAAAAAAAAAAAAAAAAAAAAAAAAAAAAAAAAAAhuirFV5RwQa9xm3yQx1V31VaaGB8yqkbZJbRExquVEVUbzcnPkiry/0UwWG6a3TdrVqbDtnUGE2Wxan8Cro5rHfKu6VN4r6OhdSUyOZNR0raaFFlfM5EdK5ysYxFaiucslruC7iEyq0XZmZ5jY6y9XLXWQ4dUXGtzK9XZK641zqWSOuSGpi7Ggie+mVr6amYjY0VFRZuTWM3zJeFnPMp2fd8uutBYKq1Zrc7BkN6pZ85yGOmtNbRQUsU8EVupVgpbo3/gYXQ1E/g7mOXm+J7Y2Rnq0AAAAAAAAAAAlWR/en157v8y/UccKqAAAAAAAAAAAAAAAAAAAAAAAAAAAAAAAAAAAAAAAAAAAASrhO+6xpv3f49+nQFVAAAAAAAAAAAABKsj+9Prz3f5l+o44VUAAAAAAAAAAAAAAAAAAAAAAAAAAAAAAAAAAAAAAAAAAAAlXmncLHs06q/Jtu/hHmncLHs06q/Jtu/hHmncLHs06q/Jtu/hHmncLHs06q/Jtu/hHmncLHs06q/Jtu/hHmncLHs06q/Jtu/hHmncLHs06q/Jtu/hHmncLHs06q/Jtu/hHmncLHs06q/Jtu/hHmncLHs06q/Jtu/hHmncLHs06q/Jtu/hHmncLHs06q/Jtu/hHmncLHs06q/Jtu/hHmncLHs06q/Jtu/hHmncLHs06q/Jtu/hHmncLHs06q/Jtu/hHmncLHs06q/Jtu/hHmncLHs06q/Jtu/hHmncLHs06q/Jtu/hHmncLHs06q/Jtu/hHmncLHs06q/Jtu/hHmncLHs06q/Jtu/hHmncLHs06q/Jtu/hHmncLHs06q/Jtu/hHmncLHs06q/Jtu/hHmncLHs06q/Jtu/hHmncLHs06q/Jtu/hNgwrSGl9a3WW+651DhWK3KendSS1lksFJQzyQOc1zonSQxtcrFcxjlaq8ubGr/ohuoAAAAAAAAAAAAAAAAAAAAAAAAAAAAAAAAAAAAAAAAAAAB//Z;" vertex="1" parent="1">
                    <mxGeometry width="931" height="964" as="geometry"/>
                </mxCell>
            </root>
        </mxGraphModel>
    </diagram>
</mxfile>